<svg width="852" height="57" viewBox="0 0 852 57" fill="none" xmlns="http://www.w3.org/2000/svg">
<g filter="url(#filter0_d_3697_51396)">
<path d="M28.368 21.848H50.832C50.96 22.36 51.0667 22.9787 51.152 23.704C51.2373 24.4293 51.28 25.1547 51.28 25.88C51.28 28.824 50.832 31.5973 49.936 34.2C49.04 36.8027 47.632 39.128 45.712 41.176C43.664 43.352 41.2107 45.0373 38.352 46.232C35.4933 47.4267 32.2293 48.024 28.56 48.024C25.232 48.024 22.096 47.4267 19.152 46.232C16.208 45.0373 13.648 43.3733 11.472 41.24C9.296 39.1067 7.568 36.5893 6.288 33.688C5.008 30.744 4.368 27.544 4.368 24.088C4.368 20.632 5.008 17.4533 6.288 14.552C7.568 11.608 9.296 9.06933 11.472 6.936C13.648 4.80266 16.208 3.13866 19.152 1.944C22.096 0.74933 25.232 0.151997 28.56 0.151997C32.272 0.151997 35.5787 0.791997 38.48 2.072C41.424 3.352 43.9413 5.12266 46.032 7.384L40.08 13.208C38.5867 11.6293 36.9227 10.4347 35.088 9.624C33.2533 8.77066 31.056 8.344 28.496 8.344C26.4053 8.344 24.4213 8.728 22.544 9.496C20.6667 10.2213 19.024 11.2667 17.616 12.632C16.208 13.9973 15.0773 15.6613 14.224 17.624C13.4133 19.544 13.008 21.6987 13.008 24.088C13.008 26.4773 13.4133 28.6533 14.224 30.616C15.0773 32.536 16.208 34.1787 17.616 35.544C19.0667 36.9093 20.7307 37.976 22.608 38.744C24.4853 39.4693 26.4907 39.832 28.624 39.832C31.056 39.832 33.104 39.4907 34.768 38.808C36.4747 38.0827 37.9253 37.1653 39.12 36.056C39.9733 35.288 40.6987 34.328 41.296 33.176C41.936 31.9813 42.4267 30.6587 42.768 29.208H28.368V21.848ZM62.1965 47V1.176H70.5805V47H62.1965ZM97.0945 14.616C99.5265 14.616 101.745 15.0427 103.75 15.896C105.799 16.7067 107.548 17.8587 108.999 19.352C110.492 20.8027 111.644 22.552 112.454 24.6C113.308 26.648 113.735 28.888 113.735 31.32C113.735 33.752 113.308 35.992 112.454 38.04C111.644 40.088 110.492 41.8587 108.999 43.352C107.548 44.8027 105.799 45.9547 103.75 46.808C101.745 47.6187 99.5265 48.024 97.0945 48.024C94.6625 48.024 92.4225 47.6187 90.3745 46.808C88.3692 45.9547 86.6198 44.8027 85.1265 43.352C83.6758 41.8587 82.5238 40.088 81.6705 38.04C80.8598 35.992 80.4545 33.752 80.4545 31.32C80.4545 28.888 80.8598 26.648 81.6705 24.6C82.5238 22.552 83.6758 20.8027 85.1265 19.352C86.6198 17.8587 88.3692 16.7067 90.3745 15.896C92.4225 15.0427 94.6625 14.616 97.0945 14.616ZM97.0945 40.28C98.1612 40.28 99.1852 40.088 100.167 39.704C101.19 39.2773 102.086 38.68 102.854 37.912C103.623 37.144 104.22 36.2053 104.646 35.096C105.116 33.9867 105.351 32.728 105.351 31.32C105.351 29.912 105.116 28.6533 104.646 27.544C104.22 26.4347 103.623 25.496 102.854 24.728C102.086 23.96 101.19 23.384 100.167 23C99.1852 22.5733 98.1612 22.36 97.0945 22.36C95.9852 22.36 94.9398 22.5733 93.9585 23C92.9772 23.384 92.1025 23.96 91.3345 24.728C90.5665 25.496 89.9478 26.4347 89.4785 27.544C89.0518 28.6533 88.8385 29.912 88.8385 31.32C88.8385 32.728 89.0518 33.9867 89.4785 35.096C89.9478 36.2053 90.5665 37.144 91.3345 37.912C92.1025 38.68 92.9772 39.2773 93.9585 39.704C94.9398 40.088 95.9852 40.28 97.0945 40.28ZM123.609 1.176H131.993V14.936L131.481 19.416H131.993C132.761 18.0933 133.956 16.9627 135.577 16.024C137.198 15.0853 139.204 14.616 141.593 14.616C143.598 14.616 145.497 15.0427 147.289 15.896C149.124 16.7067 150.724 17.8587 152.089 19.352C153.497 20.8027 154.606 22.552 155.417 24.6C156.228 26.648 156.633 28.888 156.633 31.32C156.633 33.752 156.228 35.992 155.417 38.04C154.606 40.088 153.497 41.8587 152.089 43.352C150.724 44.8027 149.124 45.9547 147.289 46.808C145.497 47.6187 143.598 48.024 141.593 48.024C139.204 48.024 137.198 47.5547 135.577 46.616C133.956 45.6773 132.761 44.5467 131.993 43.224H131.481V47H123.609V1.176ZM139.865 40.28C140.974 40.28 142.02 40.0667 143.001 39.64C144.025 39.2133 144.921 38.616 145.689 37.848C146.457 37.08 147.076 36.1413 147.545 35.032C148.014 33.9227 148.249 32.6853 148.249 31.32C148.249 29.9547 148.014 28.7173 147.545 27.608C147.076 26.4987 146.457 25.56 145.689 24.792C144.921 24.024 144.025 23.4267 143.001 23C142.02 22.5733 140.974 22.36 139.865 22.36C138.756 22.36 137.689 22.5733 136.665 23C135.684 23.384 134.809 23.96 134.041 24.728C133.273 25.496 132.654 26.4347 132.185 27.544C131.716 28.6533 131.481 29.912 131.481 31.32C131.481 32.728 131.716 33.9867 132.185 35.096C132.654 36.2053 133.273 37.144 134.041 37.912C134.809 38.68 135.684 39.2773 136.665 39.704C137.689 40.088 138.756 40.28 139.865 40.28ZM186.112 43.672H185.6C184.619 44.8667 183.424 45.8907 182.016 46.744C180.651 47.5973 178.88 48.024 176.704 48.024C175.083 48.024 173.547 47.7467 172.096 47.192C170.688 46.68 169.451 45.9547 168.384 45.016C167.317 44.0773 166.485 42.9467 165.888 41.624C165.291 40.3013 164.992 38.8507 164.992 37.272C164.992 35.6507 165.312 34.2 165.952 32.92C166.592 31.5973 167.488 30.4667 168.64 29.528C169.792 28.5893 171.136 27.8853 172.672 27.416C174.251 26.904 175.957 26.648 177.792 26.648C179.84 26.648 181.525 26.8187 182.848 27.16C184.171 27.4587 185.259 27.7787 186.112 28.12V27.16C186.112 25.496 185.451 24.1307 184.128 23.064C182.805 21.9547 181.163 21.4 179.2 21.4C176.299 21.4 173.845 22.616 171.84 25.048L165.76 20.888C169.088 16.7067 173.632 14.616 179.392 14.616C184.256 14.616 187.968 15.768 190.528 18.072C193.088 20.3333 194.368 23.704 194.368 28.184V47H186.112V43.672ZM186.112 34.264C185.131 33.7947 184.107 33.432 183.04 33.176C182.016 32.8773 180.885 32.728 179.648 32.728C177.643 32.728 176.085 33.176 174.976 34.072C173.909 34.9253 173.376 35.992 173.376 37.272C173.376 38.552 173.888 39.576 174.912 40.344C175.979 41.112 177.195 41.496 178.56 41.496C179.669 41.496 180.693 41.304 181.632 40.92C182.571 40.4933 183.36 39.96 184 39.32C184.683 38.6373 185.195 37.8693 185.536 37.016C185.92 36.12 186.112 35.2027 186.112 34.264ZM205.834 47V1.176H214.218V47H205.834ZM246.083 1.176H254.723V38.808H274.115V47H246.083V1.176ZM313.742 39.448C312.292 42.008 310.329 44.0773 307.854 45.656C305.422 47.2347 302.436 48.024 298.894 48.024C296.505 48.024 294.286 47.6187 292.238 46.808C290.233 45.9547 288.484 44.7813 286.99 43.288C285.497 41.7947 284.324 40.0453 283.47 38.04C282.66 35.992 282.254 33.752 282.254 31.32C282.254 29.0587 282.66 26.9253 283.47 24.92C284.281 22.872 285.412 21.1013 286.862 19.608C288.313 18.072 290.02 16.856 291.982 15.96C293.988 15.064 296.185 14.616 298.574 14.616C301.092 14.616 303.332 15.0427 305.294 15.896C307.257 16.7067 308.9 17.8587 310.222 19.352C311.545 20.8027 312.548 22.5307 313.23 24.536C313.913 26.5413 314.254 28.7173 314.254 31.064C314.254 31.3627 314.254 31.6187 314.254 31.832C314.212 32.088 314.19 32.3227 314.19 32.536C314.148 32.7493 314.126 32.984 314.126 33.24H290.51C290.681 34.52 291.022 35.6293 291.534 36.568C292.089 37.464 292.75 38.232 293.518 38.872C294.329 39.4693 295.204 39.9173 296.142 40.216C297.081 40.472 298.041 40.6 299.022 40.6C300.942 40.6 302.521 40.1733 303.758 39.32C305.038 38.424 306.041 37.3147 306.766 35.992L313.742 39.448ZM306.126 27.288C306.084 26.7333 305.892 26.1147 305.55 25.432C305.252 24.7493 304.782 24.1093 304.142 23.512C303.545 22.9147 302.777 22.424 301.838 22.04C300.942 21.656 299.854 21.464 298.574 21.464C296.782 21.464 295.204 21.976 293.838 23C292.473 24.024 291.513 25.4533 290.958 27.288H306.126ZM344.05 43.672H343.538C342.556 44.8667 341.362 45.8907 339.954 46.744C338.588 47.5973 336.818 48.024 334.642 48.024C333.02 48.024 331.484 47.7467 330.034 47.192C328.626 46.68 327.388 45.9547 326.322 45.016C325.255 44.0773 324.423 42.9467 323.826 41.624C323.228 40.3013 322.93 38.8507 322.93 37.272C322.93 35.6507 323.25 34.2 323.89 32.92C324.53 31.5973 325.426 30.4667 326.578 29.528C327.73 28.5893 329.074 27.8853 330.61 27.416C332.188 26.904 333.895 26.648 335.73 26.648C337.778 26.648 339.463 26.8187 340.786 27.16C342.108 27.4587 343.196 27.7787 344.05 28.12V27.16C344.05 25.496 343.388 24.1307 342.066 23.064C340.743 21.9547 339.1 21.4 337.138 21.4C334.236 21.4 331.783 22.616 329.778 25.048L323.698 20.888C327.026 16.7067 331.57 14.616 337.33 14.616C342.194 14.616 345.906 15.768 348.466 18.072C351.026 20.3333 352.306 23.704 352.306 28.184V47H344.05V43.672ZM344.05 34.264C343.068 33.7947 342.044 33.432 340.978 33.176C339.954 32.8773 338.823 32.728 337.586 32.728C335.58 32.728 334.023 33.176 332.914 34.072C331.847 34.9253 331.314 35.992 331.314 37.272C331.314 38.552 331.826 39.576 332.85 40.344C333.916 41.112 335.132 41.496 336.498 41.496C337.607 41.496 338.631 41.304 339.57 40.92C340.508 40.4933 341.298 39.96 341.938 39.32C342.62 38.6373 343.132 37.8693 343.474 37.016C343.858 36.12 344.05 35.2027 344.05 34.264ZM386.819 43.224H386.307C385.539 44.5467 384.344 45.6773 382.723 46.616C381.102 47.5547 379.096 48.024 376.707 48.024C374.702 48.024 372.782 47.6187 370.947 46.808C369.155 45.9547 367.555 44.8027 366.147 43.352C364.782 41.8587 363.694 40.088 362.883 38.04C362.072 35.992 361.667 33.752 361.667 31.32C361.667 28.888 362.072 26.648 362.883 24.6C363.694 22.552 364.782 20.8027 366.147 19.352C367.555 17.8587 369.155 16.7067 370.947 15.896C372.782 15.0427 374.702 14.616 376.707 14.616C379.096 14.616 381.102 15.0853 382.723 16.024C384.344 16.9627 385.539 18.0933 386.307 19.416H386.819L386.307 14.936V1.176H394.691V47H386.819V43.224ZM378.435 40.28C379.544 40.28 380.59 40.088 381.571 39.704C382.595 39.2773 383.491 38.68 384.259 37.912C385.027 37.144 385.646 36.2053 386.115 35.096C386.584 33.9867 386.819 32.728 386.819 31.32C386.819 29.912 386.584 28.6533 386.115 27.544C385.646 26.4347 385.027 25.496 384.259 24.728C383.491 23.96 382.595 23.384 381.571 23C380.59 22.5733 379.544 22.36 378.435 22.36C377.326 22.36 376.259 22.5733 375.235 23C374.254 23.4267 373.379 24.024 372.611 24.792C371.843 25.56 371.224 26.4987 370.755 27.608C370.286 28.7173 370.051 29.9547 370.051 31.32C370.051 32.6853 370.286 33.9227 370.755 35.032C371.224 36.1413 371.843 37.08 372.611 37.848C373.379 38.616 374.254 39.2133 375.235 39.64C376.259 40.0667 377.326 40.28 378.435 40.28ZM436.017 39.448C434.567 42.008 432.604 44.0773 430.129 45.656C427.697 47.2347 424.711 48.024 421.169 48.024C418.78 48.024 416.561 47.6187 414.513 46.808C412.508 45.9547 410.759 44.7813 409.265 43.288C407.772 41.7947 406.599 40.0453 405.745 38.04C404.935 35.992 404.529 33.752 404.529 31.32C404.529 29.0587 404.935 26.9253 405.745 24.92C406.556 22.872 407.687 21.1013 409.137 19.608C410.588 18.072 412.295 16.856 414.257 15.96C416.263 15.064 418.46 14.616 420.849 14.616C423.367 14.616 425.607 15.0427 427.569 15.896C429.532 16.7067 431.175 17.8587 432.497 19.352C433.82 20.8027 434.823 22.5307 435.505 24.536C436.188 26.5413 436.529 28.7173 436.529 31.064C436.529 31.3627 436.529 31.6187 436.529 31.832C436.487 32.088 436.465 32.3227 436.465 32.536C436.423 32.7493 436.401 32.984 436.401 33.24H412.785C412.956 34.52 413.297 35.6293 413.809 36.568C414.364 37.464 415.025 38.232 415.793 38.872C416.604 39.4693 417.479 39.9173 418.417 40.216C419.356 40.472 420.316 40.6 421.297 40.6C423.217 40.6 424.796 40.1733 426.033 39.32C427.313 38.424 428.316 37.3147 429.041 35.992L436.017 39.448ZM428.401 27.288C428.359 26.7333 428.167 26.1147 427.825 25.432C427.527 24.7493 427.057 24.1093 426.417 23.512C425.82 22.9147 425.052 22.424 424.113 22.04C423.217 21.656 422.129 21.464 420.849 21.464C419.057 21.464 417.479 21.976 416.113 23C414.748 24.024 413.788 25.4533 413.233 27.288H428.401ZM446.684 15.64H454.556V19.992H455.068C455.452 19.224 455.964 18.52 456.604 17.88C457.244 17.24 457.948 16.6853 458.716 16.216C459.527 15.7467 460.38 15.384 461.276 15.128C462.215 14.872 463.132 14.744 464.028 14.744C465.137 14.744 466.076 14.8507 466.844 15.064C467.655 15.2773 468.337 15.5547 468.892 15.896L466.652 23.512C466.14 23.256 465.564 23.064 464.924 22.936C464.327 22.7653 463.58 22.68 462.684 22.68C461.532 22.68 460.487 22.9147 459.548 23.384C458.609 23.8107 457.799 24.4293 457.116 25.24C456.476 26.0507 455.964 27.0107 455.58 28.12C455.239 29.1867 455.068 30.36 455.068 31.64V47H446.684V15.64ZM477.859 1.176H486.243V14.936L485.731 19.416H486.243C487.011 18.0933 488.206 16.9627 489.827 16.024C491.448 15.0853 493.454 14.616 495.843 14.616C497.848 14.616 499.747 15.0427 501.539 15.896C503.374 16.7067 504.974 17.8587 506.339 19.352C507.747 20.8027 508.856 22.552 509.667 24.6C510.478 26.648 510.883 28.888 510.883 31.32C510.883 33.752 510.478 35.992 509.667 38.04C508.856 40.088 507.747 41.8587 506.339 43.352C504.974 44.8027 503.374 45.9547 501.539 46.808C499.747 47.6187 497.848 48.024 495.843 48.024C493.454 48.024 491.448 47.5547 489.827 46.616C488.206 45.6773 487.011 44.5467 486.243 43.224H485.731V47H477.859V1.176ZM494.115 40.28C495.224 40.28 496.27 40.0667 497.251 39.64C498.275 39.2133 499.171 38.616 499.939 37.848C500.707 37.08 501.326 36.1413 501.795 35.032C502.264 33.9227 502.499 32.6853 502.499 31.32C502.499 29.9547 502.264 28.7173 501.795 27.608C501.326 26.4987 500.707 25.56 499.939 24.792C499.171 24.024 498.275 23.4267 497.251 23C496.27 22.5733 495.224 22.36 494.115 22.36C493.006 22.36 491.939 22.5733 490.915 23C489.934 23.384 489.059 23.96 488.291 24.728C487.523 25.496 486.904 26.4347 486.435 27.544C485.966 28.6533 485.731 29.912 485.731 31.32C485.731 32.728 485.966 33.9867 486.435 35.096C486.904 36.2053 487.523 37.144 488.291 37.912C489.059 38.68 489.934 39.2773 490.915 39.704C491.939 40.088 493.006 40.28 494.115 40.28ZM535.882 14.616C538.314 14.616 540.533 15.0427 542.538 15.896C544.586 16.7067 546.335 17.8587 547.786 19.352C549.279 20.8027 550.431 22.552 551.242 24.6C552.095 26.648 552.522 28.888 552.522 31.32C552.522 33.752 552.095 35.992 551.242 38.04C550.431 40.088 549.279 41.8587 547.786 43.352C546.335 44.8027 544.586 45.9547 542.538 46.808C540.533 47.6187 538.314 48.024 535.882 48.024C533.45 48.024 531.21 47.6187 529.162 46.808C527.157 45.9547 525.407 44.8027 523.914 43.352C522.463 41.8587 521.311 40.088 520.458 38.04C519.647 35.992 519.242 33.752 519.242 31.32C519.242 28.888 519.647 26.648 520.458 24.6C521.311 22.552 522.463 20.8027 523.914 19.352C525.407 17.8587 527.157 16.7067 529.162 15.896C531.21 15.0427 533.45 14.616 535.882 14.616ZM535.882 40.28C536.949 40.28 537.973 40.088 538.954 39.704C539.978 39.2773 540.874 38.68 541.642 37.912C542.41 37.144 543.007 36.2053 543.434 35.096C543.903 33.9867 544.138 32.728 544.138 31.32C544.138 29.912 543.903 28.6533 543.434 27.544C543.007 26.4347 542.41 25.496 541.642 24.728C540.874 23.96 539.978 23.384 538.954 23C537.973 22.5733 536.949 22.36 535.882 22.36C534.773 22.36 533.727 22.5733 532.746 23C531.765 23.384 530.89 23.96 530.122 24.728C529.354 25.496 528.735 26.4347 528.266 27.544C527.839 28.6533 527.626 29.912 527.626 31.32C527.626 32.728 527.839 33.9867 528.266 35.096C528.735 36.2053 529.354 37.144 530.122 37.912C530.89 38.68 531.765 39.2773 532.746 39.704C533.727 40.088 534.773 40.28 535.882 40.28ZM582.037 43.672H581.525C580.544 44.8667 579.349 45.8907 577.941 46.744C576.576 47.5973 574.805 48.024 572.629 48.024C571.008 48.024 569.472 47.7467 568.021 47.192C566.613 46.68 565.376 45.9547 564.309 45.016C563.242 44.0773 562.41 42.9467 561.813 41.624C561.216 40.3013 560.917 38.8507 560.917 37.272C560.917 35.6507 561.237 34.2 561.877 32.92C562.517 31.5973 563.413 30.4667 564.565 29.528C565.717 28.5893 567.061 27.8853 568.597 27.416C570.176 26.904 571.882 26.648 573.717 26.648C575.765 26.648 577.45 26.8187 578.773 27.16C580.096 27.4587 581.184 27.7787 582.037 28.12V27.16C582.037 25.496 581.376 24.1307 580.053 23.064C578.73 21.9547 577.088 21.4 575.125 21.4C572.224 21.4 569.77 22.616 567.765 25.048L561.685 20.888C565.013 16.7067 569.557 14.616 575.317 14.616C580.181 14.616 583.893 15.768 586.453 18.072C589.013 20.3333 590.293 23.704 590.293 28.184V47H582.037V43.672ZM582.037 34.264C581.056 33.7947 580.032 33.432 578.965 33.176C577.941 32.8773 576.81 32.728 575.573 32.728C573.568 32.728 572.01 33.176 570.901 34.072C569.834 34.9253 569.301 35.992 569.301 37.272C569.301 38.552 569.813 39.576 570.837 40.344C571.904 41.112 573.12 41.496 574.485 41.496C575.594 41.496 576.618 41.304 577.557 40.92C578.496 40.4933 579.285 39.96 579.925 39.32C580.608 38.6373 581.12 37.8693 581.461 37.016C581.845 36.12 582.037 35.2027 582.037 34.264ZM601.759 15.64H609.631V19.992H610.143C610.527 19.224 611.039 18.52 611.679 17.88C612.319 17.24 613.023 16.6853 613.791 16.216C614.602 15.7467 615.455 15.384 616.351 15.128C617.29 14.872 618.207 14.744 619.103 14.744C620.212 14.744 621.151 14.8507 621.919 15.064C622.73 15.2773 623.412 15.5547 623.967 15.896L621.727 23.512C621.215 23.256 620.639 23.064 619.999 22.936C619.402 22.7653 618.655 22.68 617.759 22.68C616.607 22.68 615.562 22.9147 614.623 23.384C613.684 23.8107 612.874 24.4293 612.191 25.24C611.551 26.0507 611.039 27.0107 610.655 28.12C610.314 29.1867 610.143 30.36 610.143 31.64V47H601.759V15.64ZM654.044 43.224H653.532C652.764 44.5467 651.569 45.6773 649.948 46.616C648.327 47.5547 646.321 48.024 643.932 48.024C641.927 48.024 640.007 47.6187 638.172 46.808C636.38 45.9547 634.78 44.8027 633.372 43.352C632.007 41.8587 630.919 40.088 630.108 38.04C629.297 35.992 628.892 33.752 628.892 31.32C628.892 28.888 629.297 26.648 630.108 24.6C630.919 22.552 632.007 20.8027 633.372 19.352C634.78 17.8587 636.38 16.7067 638.172 15.896C640.007 15.0427 641.927 14.616 643.932 14.616C646.321 14.616 648.327 15.0853 649.948 16.024C651.569 16.9627 652.764 18.0933 653.532 19.416H654.044L653.532 14.936V1.176H661.916V47H654.044V43.224ZM645.66 40.28C646.769 40.28 647.815 40.088 648.796 39.704C649.82 39.2773 650.716 38.68 651.484 37.912C652.252 37.144 652.871 36.2053 653.34 35.096C653.809 33.9867 654.044 32.728 654.044 31.32C654.044 29.912 653.809 28.6533 653.34 27.544C652.871 26.4347 652.252 25.496 651.484 24.728C650.716 23.96 649.82 23.384 648.796 23C647.815 22.5733 646.769 22.36 645.66 22.36C644.551 22.36 643.484 22.5733 642.46 23C641.479 23.4267 640.604 24.024 639.836 24.792C639.068 25.56 638.449 26.4987 637.98 27.608C637.511 28.7173 637.276 29.9547 637.276 31.32C637.276 32.6853 637.511 33.9227 637.98 35.032C638.449 36.1413 639.068 37.08 639.836 37.848C640.604 38.616 641.479 39.2133 642.46 39.64C643.484 40.0667 644.551 40.28 645.66 40.28ZM692.082 47V39.384C694.599 36.9093 696.924 34.6053 699.058 32.472C699.954 31.576 700.871 30.6587 701.81 29.72C702.748 28.7813 703.623 27.9067 704.434 27.096C705.244 26.2853 705.97 25.56 706.61 24.92C707.25 24.2373 707.74 23.704 708.082 23.32C708.764 22.5093 709.362 21.784 709.874 21.144C710.428 20.504 710.855 19.8853 711.154 19.288C711.495 18.648 711.751 18.0293 711.922 17.432C712.092 16.792 712.178 16.1093 712.178 15.384C712.178 13.976 711.623 12.76 710.514 11.736C709.404 10.6693 707.89 10.136 705.97 10.136C704.05 10.136 702.556 10.6907 701.49 11.8C700.423 12.8667 699.698 14.0827 699.314 15.448L691.698 12.312C692.039 11.16 692.594 9.98667 693.362 8.792C694.13 7.55466 695.111 6.46666 696.306 5.528C697.5 4.54667 698.908 3.75733 700.53 3.16C702.194 2.52 704.05 2.2 706.098 2.2C708.316 2.2 710.322 2.54133 712.114 3.224C713.906 3.864 715.42 4.76 716.658 5.912C717.895 7.064 718.855 8.42933 719.538 10.008C720.22 11.544 720.562 13.208 720.562 15C720.562 17.7307 719.879 20.248 718.514 22.552C717.191 24.8133 715.57 26.9253 713.65 28.888L708.146 34.392C706.695 35.8427 705.052 37.464 703.218 39.256L703.474 39.64H721.202V47H692.082ZM749.997 48.024C747.181 48.024 744.642 47.448 742.381 46.296C740.119 45.1013 738.178 43.48 736.557 41.432C734.978 39.384 733.762 36.9733 732.909 34.2C732.055 31.384 731.629 28.3547 731.629 25.112C731.629 21.8693 732.055 18.8613 732.909 16.088C733.762 13.272 734.978 10.84 736.557 8.792C738.178 6.744 740.119 5.144 742.381 3.992C744.642 2.79733 747.181 2.2 749.997 2.2C752.813 2.2 755.351 2.79733 757.613 3.992C759.874 5.144 761.794 6.744 763.373 8.792C764.994 10.84 766.231 13.272 767.085 16.088C767.938 18.8613 768.365 21.8693 768.365 25.112C768.365 28.3547 767.938 31.384 767.085 34.2C766.231 36.9733 764.994 39.384 763.373 41.432C761.794 43.48 759.874 45.1013 757.613 46.296C755.351 47.448 752.813 48.024 749.997 48.024ZM749.997 40.088C751.533 40.088 752.919 39.7253 754.157 39C755.394 38.232 756.439 37.1867 757.293 35.864C758.189 34.4987 758.85 32.8987 759.277 31.064C759.746 29.2293 759.981 27.2453 759.981 25.112C759.981 22.936 759.746 20.952 759.277 19.16C758.85 17.3253 758.189 15.7467 757.293 14.424C756.439 13.0587 755.394 12.0133 754.157 11.288C752.919 10.52 751.533 10.136 749.997 10.136C748.418 10.136 747.01 10.52 745.773 11.288C744.535 12.0133 743.49 13.0587 742.637 14.424C741.783 15.7467 741.122 17.3253 740.653 19.16C740.226 20.952 740.013 22.936 740.013 25.112C740.013 27.2453 740.226 29.2293 740.653 31.064C741.122 32.8987 741.783 34.4987 742.637 35.864C743.49 37.1867 744.535 38.232 745.773 39C747.01 39.7253 748.418 40.088 749.997 40.088ZM778.306 47V39.384C780.824 36.9093 783.149 34.6053 785.282 32.472C786.178 31.576 787.096 30.6587 788.034 29.72C788.973 28.7813 789.848 27.9067 790.658 27.096C791.469 26.2853 792.194 25.56 792.834 24.92C793.474 24.2373 793.965 23.704 794.306 23.32C794.989 22.5093 795.586 21.784 796.098 21.144C796.653 20.504 797.08 19.8853 797.378 19.288C797.72 18.648 797.976 18.0293 798.146 17.432C798.317 16.792 798.402 16.1093 798.402 15.384C798.402 13.976 797.848 12.76 796.738 11.736C795.629 10.6693 794.114 10.136 792.194 10.136C790.274 10.136 788.781 10.6907 787.714 11.8C786.648 12.8667 785.922 14.0827 785.538 15.448L777.922 12.312C778.264 11.16 778.818 9.98667 779.586 8.792C780.354 7.55466 781.336 6.46666 782.53 5.528C783.725 4.54667 785.133 3.75733 786.754 3.16C788.418 2.52 790.274 2.2 792.322 2.2C794.541 2.2 796.546 2.54133 798.338 3.224C800.13 3.864 801.645 4.76 802.882 5.912C804.12 7.064 805.08 8.42933 805.762 10.008C806.445 11.544 806.786 13.208 806.786 15C806.786 17.7307 806.104 20.248 804.738 22.552C803.416 24.8133 801.794 26.9253 799.874 28.888L794.37 34.392C792.92 35.8427 791.277 37.464 789.442 39.256L789.698 39.64H807.426V47H778.306ZM817.981 47V39.384C820.499 36.9093 822.824 34.6053 824.957 32.472C825.853 31.576 826.771 30.6587 827.709 29.72C828.648 28.7813 829.523 27.9067 830.333 27.096C831.144 26.2853 831.869 25.56 832.509 24.92C833.149 24.2373 833.64 23.704 833.981 23.32C834.664 22.5093 835.261 21.784 835.773 21.144C836.328 20.504 836.755 19.8853 837.053 19.288C837.395 18.648 837.651 18.0293 837.821 17.432C837.992 16.792 838.077 16.1093 838.077 15.384C838.077 13.976 837.523 12.76 836.413 11.736C835.304 10.6693 833.789 10.136 831.869 10.136C829.949 10.136 828.456 10.6907 827.389 11.8C826.323 12.8667 825.597 14.0827 825.213 15.448L817.597 12.312C817.939 11.16 818.493 9.98667 819.261 8.792C820.029 7.55466 821.011 6.46666 822.205 5.528C823.4 4.54667 824.808 3.75733 826.429 3.16C828.093 2.52 829.949 2.2 831.997 2.2C834.216 2.2 836.221 2.54133 838.013 3.224C839.805 3.864 841.32 4.76 842.557 5.912C843.795 7.064 844.755 8.42933 845.437 10.008C846.12 11.544 846.461 13.208 846.461 15C846.461 17.7307 845.779 20.248 844.413 22.552C843.091 24.8133 841.469 26.9253 839.549 28.888L834.045 34.392C832.595 35.8427 830.952 37.464 829.117 39.256L829.373 39.64H847.101V47H817.981Z" fill="#7D8190"/>
</g>
<defs>
<filter id="filter0_d_3697_51396" x="0.368164" y="0.1521" width="850.733" height="55.8718" filterUnits="userSpaceOnUse" color-interpolation-filters="sRGB">
<feFlood flood-opacity="0" result="BackgroundImageFix"/>
<feColorMatrix in="SourceAlpha" type="matrix" values="0 0 0 0 0 0 0 0 0 0 0 0 0 0 0 0 0 0 127 0" result="hardAlpha"/>
<feOffset dy="4"/>
<feGaussianBlur stdDeviation="2"/>
<feComposite in2="hardAlpha" operator="out"/>
<feColorMatrix type="matrix" values="0 0 0 0 0 0 0 0 0 0 0 0 0 0 0 0 0 0 0.25 0"/>
<feBlend mode="normal" in2="BackgroundImageFix" result="effect1_dropShadow_3697_51396"/>
<feBlend mode="normal" in="SourceGraphic" in2="effect1_dropShadow_3697_51396" result="shape"/>
</filter>
</defs>
</svg>
