<svg width="82" height="59" viewBox="0 0 82 59" fill="none" xmlns="http://www.w3.org/2000/svg">
<path d="M74.7172 1.57715C73.8485 5.48543 70.8765 8.63772 67.0324 11.8732C67.0532 12.4142 67.1017 13.1095 67.2179 13.7095C67.2179 13.7095 66.8729 13.0662 66.611 12.227C64.8997 13.6471 63.0322 15.0879 61.1058 16.6207C54.6226 21.7827 54.2637 29.6582 54.6469 29.6218C56.145 29.4761 59.8504 28.8866 63.6894 27.5393C62.6854 26.6706 62.2381 25.7568 62.2381 25.7568C63.0721 26.4175 64.187 26.7989 65.0869 27.0157C68.6051 25.6077 72.0226 23.5322 73.7427 20.5481C71.7435 20.373 70.8332 19.6118 70.8332 19.6118C72.0764 19.9551 73.4011 19.7488 74.2438 19.5355C74.3166 19.3604 74.386 19.1835 74.4467 19.0032C75.4298 16.1092 75.7246 12.983 75.7055 10.1879C74.7241 10.415 73.9109 10.4757 73.9109 10.4757C74.4606 10.3387 75.1472 9.84627 75.6916 9.39372C75.5685 4.98086 74.7172 1.57888 74.7172 1.57888V1.57715Z" fill="#58722B"/>
<g style="mix-blend-mode:multiply" opacity="0.45">
<path d="M63.8201 19.5824C71.0367 14.339 74.5912 8.82511 74.7144 1.57727C73.8457 5.48555 70.8737 8.63784 67.0296 11.8734C67.0504 12.4143 67.0989 13.1097 67.2151 13.7096C67.2151 13.7096 66.87 13.0663 66.6082 12.2271C64.8968 13.6472 63.0294 15.0881 61.103 16.6209C54.8834 21.573 54.3008 29.0219 54.6025 29.5872L54.6458 29.6219C54.6458 29.6219 56.6052 24.8276 63.8218 19.5842L63.8201 19.5824Z" fill="#58722B"/>
</g>
<path d="M62.7314 21.9353C64.077 21.9509 65.4086 22.0116 66.7403 22.0411C67.4061 22.0602 68.072 22.0636 68.7378 22.0688C69.4036 22.0654 70.0695 22.0515 70.744 22.0359C70.092 22.2024 69.421 22.2977 68.7499 22.3532C68.0789 22.4052 67.4044 22.4174 66.7316 22.4052C66.0589 22.3844 65.3878 22.3428 64.7203 22.2665C64.0527 22.1902 63.3869 22.0914 62.7314 21.9336V21.9353Z" fill="#2F4407"/>
<path d="M66.4971 18.8152C67.0987 18.6696 67.697 18.5396 68.2969 18.4112C68.8951 18.2777 69.4933 18.1564 70.0863 18.0142C70.3845 17.9483 70.681 17.8772 70.9758 17.8044L71.4197 17.6951C71.5654 17.6535 71.7127 17.6154 71.8619 17.5772C72.4497 17.4142 73.0323 17.2408 73.6131 17.0293C73.0999 17.3761 72.5277 17.6327 71.9486 17.8494C71.3677 18.0697 70.7677 18.2274 70.1678 18.3714C69.5644 18.5083 68.9558 18.6158 68.3437 18.6921C67.7316 18.7684 67.1161 18.8204 66.4971 18.817V18.8152Z" fill="#2F4407"/>
<path d="M70.6416 14.7193C70.9867 14.5147 71.3386 14.3326 71.6924 14.1592C72.0444 13.9824 72.4015 13.8177 72.7553 13.6495C73.1125 13.4865 73.4662 13.32 73.8251 13.1605C74.1823 12.9958 74.5377 12.8328 74.9105 12.6785C74.6244 12.9611 74.2985 13.1986 73.9621 13.4119C73.624 13.6252 73.2702 13.809 72.9113 13.9806C72.5489 14.1436 72.1813 14.2962 71.8016 14.4211C71.4236 14.5476 71.0404 14.6569 70.6433 14.7193H70.6416Z" fill="#2F4407"/>
<path d="M59.2324 25.0543C59.6624 25.4063 60.0266 25.7878 60.4028 26.1571C60.5901 26.3409 60.7739 26.5282 60.9646 26.7085C61.1571 26.8871 61.3496 27.0622 61.5646 27.2425C61.2871 27.2027 61.027 27.0813 60.7912 26.9356C60.5519 26.79 60.3421 26.6097 60.1462 26.4172C59.9503 26.223 59.7769 26.0097 59.6226 25.7843C59.4682 25.5589 59.3295 25.3196 59.2359 25.0561L59.2324 25.0543Z" fill="#2F4407"/>
<path d="M61.3353 20.5427C61.2746 20.1404 61.2833 19.733 61.3197 19.3307C61.3561 18.9267 61.4376 18.5279 61.5434 18.136C61.6526 17.7441 61.8017 17.3627 61.9872 17.0003C62.1693 16.6362 62.4068 16.2998 62.6843 16.005C62.5334 16.383 62.3756 16.7419 62.2491 17.1147C62.1225 17.4858 61.9942 17.8551 61.8953 18.2348C61.6786 18.9891 61.5156 19.7555 61.3353 20.5427Z" fill="#2F4407"/>
<path d="M65.3928 17.4242C65.3477 17.1017 65.3563 16.7774 65.3858 16.4584C65.4153 16.1376 65.476 15.822 65.5575 15.5099C65.639 15.1978 65.75 14.8944 65.8887 14.6013C66.0256 14.3083 66.1973 14.0309 66.4106 13.7847C66.3326 14.102 66.2389 14.4002 66.1557 14.7019L65.9112 15.6036L65.665 16.5087C65.5818 16.8121 65.4968 17.1155 65.391 17.4242H65.3928Z" fill="#2F4407"/>
<path d="M69.3579 13.4257C69.325 13.1119 69.3389 12.7998 69.3683 12.4929C69.3961 12.1843 69.4481 11.8791 69.5209 11.5774C69.592 11.2757 69.6822 10.9774 69.807 10.6896C69.9284 10.4035 70.0758 10.1174 70.2891 9.88159C70.211 10.1868 70.1469 10.4815 70.0792 10.7763L69.8781 11.6623C69.807 11.9571 69.7342 12.2519 69.6492 12.5466C69.5677 12.8414 69.4758 13.1344 69.3597 13.4275L69.3579 13.4257Z" fill="#2F4407"/>
<path d="M59.1219 19.5497C58.9485 20.1548 58.7769 20.727 58.6468 21.3148C58.5792 21.6061 58.522 21.9009 58.4717 22.1991C58.4162 22.4974 58.3885 22.7991 58.3312 23.1129C58.2359 22.8112 58.1839 22.4939 58.1873 22.1783C58.1804 21.861 58.2185 21.5437 58.2896 21.2351C58.3607 20.9264 58.4613 20.6247 58.6 20.3404C58.7353 20.056 58.9017 19.782 59.1202 19.5514L59.1219 19.5497Z" fill="#2F4407"/>
<path opacity="0.35" d="M61.6609 26.9659C61.3454 27.1636 61.0107 27.3145 60.6691 27.4445C60.3275 27.5746 59.979 27.6855 59.6253 27.7722C59.2716 27.8607 58.9127 27.9248 58.5503 27.9682C58.1879 28.0115 57.822 28.0323 57.4492 28.0046C57.7908 27.8555 58.1359 27.741 58.4809 27.637C58.826 27.5329 59.1727 27.4358 59.5213 27.3509C59.8698 27.2642 60.2218 27.1879 60.5755 27.1203C60.931 27.0526 61.2881 26.992 61.6592 26.9659H61.6609Z" fill="white"/>
<path opacity="0.35" d="M71.6703 21.2427C71.2281 21.801 70.7045 22.29 70.1617 22.746C69.6173 23.2038 69.0382 23.6182 68.4417 24.0066C67.8383 24.3811 67.2245 24.7435 66.5812 25.0435C65.9431 25.3556 65.2825 25.6191 64.6045 25.8324C64.9027 25.6382 65.2131 25.4683 65.5148 25.2845C65.8165 25.1007 66.1234 24.929 66.4216 24.7452C66.5708 24.6533 66.7216 24.5632 66.8742 24.4765L67.3216 24.199C67.6233 24.0204 67.9163 23.828 68.2111 23.6424C68.8023 23.2679 69.3815 22.876 69.9606 22.479C70.5363 22.0784 71.1085 21.671 71.6737 21.2427H71.6703Z" fill="white"/>
<path opacity="0.35" d="M74.6745 8.12112C74.8115 8.99675 74.8583 9.88279 74.8617 10.7671C74.8652 11.6531 74.808 12.5392 74.7109 13.42C74.6068 14.3009 74.4421 15.1765 74.2202 16.0348C73.993 16.8931 73.6844 17.7323 73.2891 18.523C73.5179 17.6664 73.7295 16.8203 73.8907 15.9602C73.9341 15.747 73.9636 15.5285 74.0034 15.3152C74.0433 15.1002 74.0797 14.8852 74.1057 14.6684L74.2011 14.02L74.2791 13.3697C74.3832 12.5028 74.4577 11.6306 74.5236 10.755C74.5843 9.87933 74.6329 9.00369 74.6745 8.11938V8.12112Z" fill="white"/>
<path d="M57.7155 13.9953C58.5045 13.9554 59.2431 13.7629 59.8274 13.5566C60.0494 13.1231 60.228 12.6913 60.3511 12.2683C60.8782 10.4598 61.0048 8.30795 60.9545 6.31567C59.9887 6.75262 59.0888 6.99884 59.0888 6.99884C59.8968 6.57055 60.5158 6.00876 60.9285 5.56661C60.7863 2.50968 60.28 0.00415039 60.28 0.00415039C59.8916 1.26472 58.9952 2.38831 57.856 3.48069L57.9444 4.16212L57.6843 3.64367C56.3405 4.90424 54.6898 6.13187 53.1431 7.4878C53.2177 7.95423 53.3529 8.52296 53.5992 9.05528C53.5992 9.05528 53.1431 8.5403 52.7565 7.83112C51.7837 8.71023 50.8648 9.64655 50.1105 10.6852C49.677 11.2816 49.3146 11.9683 49.0094 12.7104C49.2106 13.4352 49.4741 14.2779 49.7741 14.9559C49.7741 14.9559 49.2661 14.2918 48.7285 13.4543C47.1645 17.9868 47.4975 23.9775 47.4975 23.9775C50.0169 23.1261 56.8399 18.5607 59.4824 14.1686C58.501 14.108 57.712 13.9935 57.712 13.9935L57.7155 13.9953Z" fill="#58722B"/>
<g style="mix-blend-mode:multiply" opacity="0.45">
<path d="M60.2771 0.00173298C59.8887 1.2623 58.9922 2.38589 57.853 3.47826L57.9415 4.1597L57.6814 3.64125C56.3376 4.90182 54.6869 6.12945 53.1402 7.48538C53.2148 7.95181 53.35 8.52053 53.5962 9.05285C53.5962 9.05285 53.1402 8.53787 52.7535 7.8287C51.7808 8.7078 50.8618 9.64412 50.1076 10.6827C49.6741 11.2792 49.3117 11.9659 49.0065 12.708C49.2077 13.4328 49.4712 14.2755 49.7712 14.9534C49.7712 14.9534 49.2631 14.2893 48.7256 13.4518C47.1616 17.9843 47.4945 23.9751 47.4945 23.9751C47.4945 23.9751 49.7382 18.1369 52.7865 13.9304C55.8347 9.72388 59.5904 5.27635 60.2736 0L60.2771 0.00173298Z" fill="#58722B"/>
</g>
<path d="M54.9256 12.5317C55.3278 12.4225 55.7284 12.3323 56.1272 12.2456L57.3236 11.9873C57.7224 11.9075 58.1195 11.8156 58.5183 11.7324C58.9188 11.6492 59.3141 11.5538 59.7268 11.481C59.3696 11.696 58.9882 11.8694 58.5963 12.0063C58.2062 12.1468 57.8039 12.256 57.3982 12.3445C56.9924 12.426 56.5815 12.4936 56.1688 12.5265C55.7561 12.5612 55.34 12.5733 54.9238 12.5317H54.9256Z" fill="#2F4407"/>
<path d="M57.1641 9.32882C57.412 9.17103 57.6686 9.04272 57.9253 8.92307C58.1819 8.8017 58.442 8.69073 58.7021 8.58496C58.9639 8.48092 59.2222 8.37689 59.4858 8.27805C59.7476 8.17575 60.0077 8.08212 60.273 7.95728C60.1031 8.20176 59.8586 8.38035 59.6124 8.53294C59.3662 8.68726 59.1043 8.81557 58.839 8.92307C58.572 9.03058 58.2998 9.12248 58.0206 9.19183C57.7415 9.26293 57.4588 9.31668 57.1641 9.33055V9.32882Z" fill="#2F4407"/>
<path d="M53.0508 15.3662C53.3924 15.3662 53.7253 15.3853 54.0565 15.4096C54.3876 15.4304 54.7171 15.4599 55.0448 15.4893L56.0297 15.5812C56.3591 15.6125 56.6886 15.6385 57.0284 15.6853C56.7024 15.7893 56.3643 15.8448 56.0262 15.8673C55.6881 15.8899 55.3482 15.8864 55.0119 15.8535C54.6755 15.8223 54.3408 15.7702 54.0131 15.6905C53.6854 15.6125 53.3594 15.5136 53.0508 15.3645V15.3662Z" fill="#2F4407"/>
<path d="M51.3103 18.064C51.5635 18.0934 51.801 18.1472 52.0368 18.2079C52.2727 18.2651 52.5015 18.3345 52.7304 18.4055C52.9593 18.4766 53.1847 18.5512 53.4119 18.6327C53.639 18.7107 53.8644 18.7905 54.1002 18.8876C53.8505 18.9431 53.5957 18.9396 53.3477 18.9119C53.0997 18.8858 52.857 18.8286 52.6194 18.7558C52.3836 18.6812 52.1548 18.5893 51.9345 18.4749C51.7143 18.3622 51.5011 18.2339 51.3086 18.0657L51.3103 18.064Z" fill="#2F4407"/>
<path d="M50.1689 11.6165C50.3163 11.8401 50.4377 12.0655 50.5556 12.2944C50.6753 12.5198 50.7845 12.7487 50.892 12.9759C51.0012 13.203 51.1087 13.4284 51.2145 13.6608C51.3237 13.8879 51.4347 14.1151 51.5422 14.3613C51.3185 14.2139 51.133 14.0179 50.9718 13.8081C50.8122 13.5966 50.677 13.3695 50.5643 13.1336C50.4533 12.8961 50.3597 12.6516 50.2921 12.3967C50.2227 12.1436 50.1724 11.8852 50.1707 11.6165H50.1689Z" fill="#2F4407"/>
<path d="M52.3643 9.1012C52.5134 9.29713 52.633 9.5 52.7457 9.70634C52.8602 9.91094 52.9607 10.119 53.0596 10.3271C53.1567 10.5369 53.2486 10.7467 53.337 10.96C53.4272 11.1732 53.5121 11.3865 53.6005 11.6154C53.3925 11.4802 53.2295 11.2946 53.089 11.1004C52.9451 10.9062 52.8289 10.6964 52.7284 10.4814C52.6278 10.2647 52.5446 10.0427 52.4839 9.81211C52.4197 9.58323 52.3729 9.34741 52.366 9.1012H52.3643Z" fill="#2F4407"/>
<path d="M55.5192 6.40149C55.6129 6.56448 55.6735 6.7292 55.729 6.89393C55.781 7.05865 55.8227 7.22337 55.8573 7.38983C55.892 7.55455 55.9163 7.72275 55.9371 7.8892C55.9562 8.05913 55.97 8.22558 55.977 8.41458C55.8313 8.29147 55.7377 8.13022 55.6597 7.96896C55.5834 7.80597 55.5331 7.63431 55.4984 7.46265C55.4637 7.28926 55.4447 7.11413 55.4464 6.93727C55.4499 6.76041 55.4637 6.58182 55.521 6.40149H55.5192Z" fill="#2F4407"/>
<path d="M48.8429 15.6851C48.9608 15.8151 49.0475 15.9486 49.1308 16.0821C49.2123 16.2156 49.2868 16.3509 49.3544 16.4879C49.4221 16.6249 49.488 16.7618 49.5469 16.904C49.6059 17.0479 49.6665 17.1901 49.7134 17.3618C49.5521 17.2941 49.4186 17.1832 49.3059 17.0618C49.1949 16.937 49.0996 16.8 49.0285 16.6526C48.9556 16.5052 48.9001 16.3509 48.8655 16.1896C48.8325 16.0284 48.8152 15.8619 48.8429 15.6868V15.6851Z" fill="#2F4407"/>
<path opacity="0.35" d="M57.5681 15.0078C57.1988 15.743 56.7341 16.4297 56.2087 17.0677C55.6851 17.7076 55.0938 18.2919 54.4626 18.8277C53.8263 19.3565 53.1501 19.8368 52.4357 20.2495C51.723 20.6657 50.9774 21.0228 50.2041 21.3003C50.8994 20.8599 51.586 20.4246 52.2536 19.9634C52.9194 19.5005 53.5679 19.0167 54.1835 18.4948C54.8042 17.9798 55.392 17.4249 55.9556 16.8423C56.5173 16.2597 57.0462 15.6425 57.5664 15.0061L57.5681 15.0078Z" fill="white"/>
<path opacity="0.35" d="M60.0862 4.53704C60.2648 5.25835 60.3221 6.00395 60.3221 6.74607C60.3221 7.48993 60.2562 8.23378 60.1279 8.96724C60.1001 9.15103 60.0585 9.33309 60.0186 9.51516C59.9753 9.69549 59.9458 9.88102 59.892 10.0579C59.788 10.4151 59.6944 10.7757 59.5574 11.1225C59.3146 11.8248 58.9852 12.4958 58.6055 13.1287C58.8222 12.4195 59.058 11.7294 59.2349 11.0202C59.4256 10.318 59.5782 9.60706 59.7013 8.89094C59.8348 8.17656 59.9181 7.45525 59.9857 6.72873C60.0481 6.00221 60.0862 5.27396 60.0862 4.53357V4.53704Z" fill="white"/>
<path d="M22.2125 18.2759C22.0131 19.7063 21.9975 20.8854 21.9975 20.8854C21.6593 20.0393 21.4651 18.7249 21.3524 17.5545C18.918 15.5657 16.4246 13.7659 14.1757 11.8378C14.0231 12.6146 13.8879 13.57 13.9485 14.3C13.9485 14.3 13.5376 12.9458 13.4492 11.1997C10.6766 8.71843 8.34621 5.97015 7.07351 2.30115C7.07351 2.30115 5.99673 5.52453 5.90657 9.66862C7.08738 10.2755 7.97342 10.9448 7.97342 10.9448C7.38388 10.6362 6.588 10.4437 5.90137 10.3258C5.9135 13.2076 6.43715 16.4587 8.1156 19.3561C9.33629 19.4376 11.1829 19.6335 12.3637 20.0913C12.3637 20.0913 10.5188 20.23 8.81611 20.4502C15.0427 29.2516 29.2228 29.6522 29.0442 29.6175C29.0442 29.6175 27.6882 23.1101 22.2125 18.2741V18.2759Z" fill="#58722B"/>
<g style="mix-blend-mode:multiply" opacity="0.45">
<path d="M7.97342 10.9448C7.38388 10.6362 6.588 10.4437 5.90137 10.3258C5.9135 13.2076 6.43715 16.4587 8.1156 19.3561C9.33629 19.4376 11.1829 19.6335 12.3637 20.0913C12.3637 20.0913 10.5188 20.23 8.81611 20.4502C15.0427 29.2516 29.2228 29.6522 29.0442 29.6175C29.0442 29.6175 26.4797 26.2502 19.9861 21.494C13.4925 16.7379 8.06358 12.4672 7.07351 2.30115C7.07351 2.30115 5.99673 5.52453 5.90657 9.66862C7.08738 10.2755 7.97342 10.9448 7.97342 10.9448V10.9448Z" fill="#58722B"/>
</g>
<path d="M17.666 25.7018C18.7948 25.7677 19.9063 25.8734 21.0194 25.9532C21.576 26 22.1326 26.0347 22.691 26.0728C23.2493 26.1145 23.8076 26.137 24.3729 26.189C23.8163 26.2879 23.251 26.3451 22.6858 26.3572C22.4031 26.3728 22.1205 26.3607 21.8379 26.3607C21.5552 26.3503 21.2726 26.3364 20.9917 26.3173C20.4282 26.2705 19.8664 26.2064 19.3115 26.1058C18.7549 26.007 18.2035 25.8838 17.666 25.7018V25.7018Z" fill="#2F4407"/>
<path d="M24.0691 21.3118C24.2477 21.5424 24.3864 21.7938 24.5078 22.0522C24.6309 22.3088 24.7332 22.5758 24.8182 22.8481C24.9031 23.1203 24.969 23.3994 25.0106 23.6821C25.054 23.9647 25.0713 24.2543 25.0436 24.5438C24.9222 24.2786 24.8268 24.015 24.7332 23.7497C24.6361 23.4861 24.5529 23.2209 24.4679 22.9556C24.3847 22.6885 24.3067 22.4215 24.239 22.1475C24.1697 21.8753 24.1055 21.5996 24.0674 21.3101L24.0691 21.3118Z" fill="#2F4407"/>
<path d="M12.4834 21.9802C13.0643 21.9924 13.6382 22.0184 14.2121 22.0479L15.9305 22.1293C16.5027 22.1606 17.0748 22.1727 17.647 22.1935L19.374 22.2247C18.8105 22.3617 18.2314 22.4397 17.6522 22.4779C17.0731 22.516 16.4922 22.5177 15.9131 22.4935C15.334 22.4623 14.7566 22.4137 14.1844 22.3305C13.6122 22.2473 13.0417 22.1415 12.4834 21.9802Z" fill="#2F4407"/>
<path d="M18.1553 16.1885C18.3477 16.4607 18.5055 16.7485 18.6477 17.0433C18.7916 17.3363 18.9165 17.638 19.0309 17.9432C19.1436 18.2484 19.2424 18.5605 19.3222 18.8778C19.4037 19.1934 19.4696 19.5159 19.4973 19.8488C19.3239 19.5627 19.1852 19.2697 19.0517 18.9714C18.9182 18.6749 18.7986 18.3732 18.6876 18.0698C18.5766 17.7664 18.4726 17.4594 18.3824 17.1456C18.2905 16.8335 18.209 16.5179 18.1553 16.1885V16.1885Z" fill="#2F4407"/>
<path d="M8.15505 16.3718C8.69778 16.4915 9.23009 16.6284 9.76068 16.7706C10.293 16.9093 10.8184 17.0637 11.3472 17.211C11.8743 17.3654 12.3997 17.518 12.9251 17.6809C13.4505 17.8439 13.9759 18.0069 14.496 18.2029C13.9429 18.156 13.395 18.0711 12.854 17.9584C12.3113 17.8509 11.7772 17.7122 11.2449 17.5648C10.7143 17.4105 10.189 17.2405 9.67225 17.0446C9.15553 16.8504 8.64402 16.6371 8.15332 16.3753L8.15505 16.3718Z" fill="#2F4407"/>
<path d="M15.1691 13.6888C15.2904 13.9437 15.3754 14.2073 15.4465 14.4708C15.5193 14.7361 15.5731 15.0032 15.6164 15.2737C15.658 15.5441 15.6875 15.8146 15.6962 16.0903C15.7066 16.3643 15.7031 16.6417 15.6563 16.9209C15.5523 16.6591 15.4777 16.3955 15.4135 16.1302C15.3476 15.8649 15.2956 15.5979 15.254 15.3309C15.2124 15.0621 15.1812 14.7916 15.1656 14.5194C15.1482 14.2472 15.1413 13.9715 15.1691 13.6906V13.6888Z" fill="#2F4407"/>
<path d="M6.87478 12.0428C7.17822 12.1243 7.46432 12.2336 7.74521 12.3515C8.02785 12.4659 8.30181 12.5942 8.57403 12.7277C8.84626 12.8613 9.11502 13.0017 9.37858 13.1508C9.64387 13.2982 9.90569 13.4508 10.1658 13.6277C9.85367 13.593 9.5537 13.5115 9.2624 13.4109C8.96937 13.3121 8.68847 13.189 8.41278 13.0555C8.13708 12.9202 7.87006 12.7711 7.6117 12.6029C7.35335 12.4364 7.10193 12.2579 6.87305 12.0428H6.87478Z" fill="#2F4407"/>
<path d="M11.2043 9.90796C11.3101 10.1264 11.3794 10.3501 11.4366 10.5755C11.4956 10.8009 11.5372 11.0281 11.5684 11.257C11.5979 11.4858 11.6187 11.7165 11.6204 11.9488C11.6239 12.1811 11.6152 12.4152 11.5701 12.6545C11.4644 12.436 11.395 12.2124 11.3378 11.9869C11.2788 11.7615 11.2372 11.5344 11.206 11.3055C11.1765 11.0766 11.1557 10.846 11.154 10.6137C11.1505 10.3813 11.1592 10.1472 11.2043 9.90969V9.90796Z" fill="#2F4407"/>
<path opacity="0.35" d="M20.3292 18.0674C20.076 17.9113 19.8263 17.7535 19.5784 17.594L18.8259 17.1189C18.3317 16.7912 17.8393 16.4583 17.3642 16.1028C16.4053 15.4023 15.4863 14.6481 14.5968 13.8609C13.7125 13.0667 12.8594 12.2396 12.0531 11.3692C11.2434 10.5022 10.4752 9.59539 9.76953 8.64172C10.6122 9.47748 11.4445 10.315 12.2959 11.1317C13.1472 11.9483 14.0055 12.7546 14.8881 13.5366C15.7637 14.3238 16.6636 15.0868 17.574 15.8358C18.03 16.2103 18.4912 16.5779 18.9542 16.9455L19.6512 17.4935C19.8818 17.6807 20.109 17.8732 20.3344 18.0639L20.3292 18.0674Z" fill="white"/>
<path opacity="0.35" d="M27.1895 26.5007C26.8375 26.0256 26.5029 25.5488 26.1682 25.0702L25.1695 23.6398L24.1707 22.2093C23.8396 21.729 23.498 21.2573 23.1807 20.7562C23.6332 21.136 24.0511 21.5538 24.436 21.9995C24.6354 22.2162 24.8123 22.452 24.9996 22.6792C25.1764 22.9132 25.3533 23.1491 25.5232 23.3901C25.8579 23.8738 26.1734 24.3732 26.4543 24.8899C26.737 25.4066 26.9953 25.9372 27.1878 26.4973L27.1895 26.5007Z" fill="white"/>
<g style="mix-blend-mode:multiply" opacity="0.45">
<path d="M40.8029 58.2726C63.3377 58.2726 81.6058 50.1167 81.6058 40.0559C81.6058 29.9951 63.3377 21.8392 40.8029 21.8392C18.2681 21.8392 0 29.9951 0 40.0559C0 50.1167 18.2681 58.2726 40.8029 58.2726Z" fill="#DBBB95"/>
</g>
<path d="M40.8043 55.4879C61.3789 55.4879 78.0579 48.0415 78.0579 38.856C78.0579 29.6705 61.3789 22.2241 40.8043 22.2241C20.2298 22.2241 3.55078 29.6705 3.55078 38.856C3.55078 48.0415 20.2298 55.4879 40.8043 55.4879Z" fill="#B26928"/>
<path d="M40.8029 51.4655C63.3377 51.4655 81.6058 43.3096 81.6058 33.2488C81.6058 23.188 63.3377 15.0321 40.8029 15.0321C18.2681 15.0321 0 23.188 0 33.2488C0 43.3096 18.2681 51.4655 40.8029 51.4655Z" fill="#C47C33"/>
<path d="M40.8017 47.8689C60.0222 47.8689 75.6035 40.9132 75.6035 32.3329C75.6035 23.7526 60.0222 16.7969 40.8017 16.7969C21.5813 16.7969 6 23.7526 6 32.3329C6 40.9132 21.5813 47.8689 40.8017 47.8689Z" fill="#B26928"/>
<path d="M40.8017 19.7238C58.9161 19.7238 73.7967 25.9035 75.4492 33.7963C75.5497 33.3143 75.6035 32.8271 75.6035 32.3329C75.6035 23.7517 60.0224 16.7969 40.8017 16.7969C21.5811 16.7969 6 23.7517 6 32.3329C6 32.8271 6.05375 33.3143 6.15432 33.7963C7.80676 25.9017 22.6856 19.7238 40.8017 19.7238Z" fill="#9E5112"/>
<path opacity="0.45" d="M61.9366 47.0396C64.9693 45.9906 67.9482 44.8011 70.7398 43.2874C72.1287 42.521 73.4794 41.6887 74.7157 40.716C75.9503 39.7502 77.0981 38.6613 77.9703 37.392C78.4124 36.7643 78.7783 36.0881 79.0401 35.3789C79.1667 35.0235 79.2655 34.6593 79.3349 34.2917C79.4008 33.9224 79.4303 33.5496 79.432 33.1768C79.4424 32.4295 79.2794 31.6822 79.0228 30.9678C78.7627 30.2534 78.402 29.5668 77.9582 28.9287C77.7518 28.5992 77.4935 28.3045 77.2576 27.9924L76.8675 27.5519L76.6733 27.3317L76.467 27.1202L76.0526 26.6989C75.9104 26.5619 75.7613 26.4318 75.6156 26.2983C75.3295 26.0261 75.0174 25.7799 74.7122 25.5267C73.4829 24.5193 72.1408 23.6419 70.7606 22.8218C72.2344 23.4616 73.6511 24.2419 74.981 25.1678C75.3104 25.4036 75.6416 25.6377 75.9537 25.8978C76.1115 26.0261 76.2728 26.1492 76.4271 26.2827L76.8831 26.6919L77.1103 26.8965L77.3253 27.115L77.7536 27.5571C78.0171 27.8727 78.3015 28.171 78.5373 28.5125C78.6569 28.6807 78.7922 28.8385 78.8979 29.0189L79.2291 29.5477C79.3332 29.728 79.4216 29.9188 79.517 30.1043C79.6175 30.2881 79.6904 30.4858 79.7684 30.6817C80.0736 31.4637 80.2816 32.3047 80.2938 33.1647C80.3076 33.593 80.2695 34.0212 80.2001 34.4426C80.1238 34.8622 80.0163 35.2749 79.8759 35.6772C79.5898 36.4765 79.191 37.2238 78.7159 37.9105C78.2391 38.5971 77.6877 39.2196 77.1016 39.7987C76.5138 40.3761 75.8913 40.9136 75.2341 41.3991C73.9181 42.3701 72.5188 43.2094 71.0606 43.9168C68.1493 45.3404 65.0681 46.353 61.9297 47.0379L61.9366 47.0396Z" fill="white"/>
<path d="M41.7517 22.2185C40.4305 20.3424 38.589 18.9501 36.8066 17.5439C35.9708 16.885 35.1506 16.3336 34.8992 15.2672C34.6495 14.2147 34.4085 13.1414 34.3322 12.0594C34.2767 11.2826 33.8987 10.2648 32.9676 10.2752C31.2337 10.296 31.7868 14.1644 31.2909 15.2152C30.7603 16.3353 29.6194 17.0809 28.6952 17.8542C26.67 19.55 24.7245 21.2978 23.5194 23.6958C22.3768 25.9708 22.3438 28.693 23.6581 30.9021C24.317 32.01 25.295 32.9273 26.4879 33.4215C27.5976 33.8792 28.8097 33.959 29.9939 34.0578C31.2181 34.1601 32.4613 34.0925 33.6889 34.089C35.1264 34.0856 36.5153 34.0717 37.9457 33.8671C39.1526 33.6937 40.238 33.3105 41.1969 32.5424C42.1852 31.7499 42.8823 30.557 43.2689 29.3675C44.0752 26.8776 43.203 24.2784 41.7552 22.2203L41.7517 22.2185ZM32.9486 11.2601C32.9486 11.2601 32.952 11.2601 32.9555 11.2601C32.9607 11.2618 32.9676 11.2636 32.9763 11.267C32.9642 11.2636 32.9555 11.2618 32.9486 11.2601Z" fill="#C9FA89"/>
<g style="mix-blend-mode:multiply" opacity="0.45">
<path d="M32.958 11.2616C32.958 11.2616 32.9514 11.2616 32.9492 11.2616C32.958 11.2638 32.969 11.266 32.9844 11.2704C32.9734 11.266 32.9646 11.2638 32.958 11.2616Z" fill="#8DC437"/>
<g style="mix-blend-mode:multiply" opacity="0.45">
<path d="M29.9905 34.0561C30.2228 34.0752 30.4569 34.0873 30.691 34.096C28.6588 33.1475 27.0324 31.4067 27.3982 28.2162C28.1612 21.5735 30.0841 21.9012 31.8995 19.2882C33.7149 16.6752 32.8064 14.9326 32.9884 12.4652C33.0526 11.5861 33.3612 10.9844 33.7323 10.5735C33.5346 10.3897 33.2832 10.2718 32.9676 10.2752C31.2337 10.296 31.7868 14.1644 31.2909 15.2152C30.7603 16.3353 29.6194 17.0809 28.6952 17.8542C26.67 19.55 24.7245 21.2978 23.5194 23.6959C22.3768 25.9708 22.3438 28.693 23.6581 30.9021C24.317 32.0101 25.295 32.9273 26.4879 33.4215C27.5976 33.8792 28.8097 33.959 29.9939 34.0578L29.9905 34.0561ZM32.9468 11.2601C32.9468 11.2601 32.9503 11.2601 32.9537 11.2601C32.9589 11.2618 32.9659 11.2636 32.9746 11.267C32.9624 11.2636 32.9537 11.2618 32.9468 11.2601Z" fill="#8DC437"/>
</g>
</g>
<g style="mix-blend-mode:multiply" opacity="0.45">
<path d="M32.8493 26.7541C32.8493 25.8958 32.8684 25.0392 32.9083 24.1809C32.9516 23.3226 33.0088 22.4661 33.1215 21.6078C30.3871 26.3969 33.1215 31.8987 33.1215 31.8987C33.0071 31.0404 32.9499 30.1838 32.9083 29.3255C32.8684 28.4672 32.8493 27.6107 32.8493 26.7524V26.7541Z" fill="#8DC437"/>
</g>
<g style="mix-blend-mode:multiply" opacity="0.45">
<path d="M28.6135 24.06C27.5523 26.5378 28.3777 29.9675 29.5568 31.5732C29.1233 30.701 28.8268 29.7543 28.6672 28.7815C28.6204 28.5388 28.6014 28.2926 28.5719 28.0464C28.558 27.8001 28.5355 27.5522 28.5407 27.3042C28.532 26.8083 28.5736 26.3124 28.6447 25.82C28.6794 25.5738 28.7314 25.331 28.7834 25.0883C28.8458 24.8473 28.9065 24.6062 28.9846 24.3704C29.1371 23.8988 29.3261 23.4376 29.5568 23.0006C29.7822 22.5602 30.0475 22.1423 30.3422 21.7487C30.6457 21.362 30.9682 20.9893 31.3514 20.6841C31.3514 20.6841 29.6729 21.5823 28.6118 24.06H28.6135Z" fill="#8DC437"/>
</g>
<path opacity="0.45" d="M40.9182 31.6836C41.05 31.5119 41.1592 31.3281 41.2615 31.1391C41.3638 30.9519 41.4575 30.7594 41.539 30.5635C41.7037 30.1716 41.8355 29.7659 41.9291 29.3532C42.1233 28.5296 42.1753 27.68 42.1216 26.8407C42.0574 26.0015 41.91 25.1658 41.6361 24.3803C41.3656 23.5913 40.9772 22.844 40.4917 22.1626C40.0149 21.4742 39.4427 20.8535 38.8184 20.2847C38.5081 19.9986 38.1821 19.7264 37.8474 19.4646C37.5111 19.2028 37.1695 18.9496 36.8227 18.6947C36.4759 18.4381 36.1256 18.178 35.7962 17.8884C35.4668 17.5989 35.1529 17.2798 34.8998 16.914C34.6501 16.5464 34.4611 16.1337 34.3657 15.7054C34.2651 15.2771 34.2478 14.8385 34.2755 14.4084C34.305 14.8385 34.3744 15.2633 34.5114 15.6638C34.6466 16.0644 34.8512 16.4337 35.1148 16.7562C35.3766 17.0804 35.6887 17.3596 36.0233 17.6162C36.3597 17.8711 36.71 18.1139 37.0672 18.3497C37.7885 18.8178 38.5011 19.3293 39.1635 19.9033C39.8224 20.4807 40.4258 21.1309 40.939 21.8522C41.4436 22.5787 41.8546 23.3746 42.1268 24.2208C42.2603 24.6438 42.3591 25.0773 42.4285 25.5125C42.4996 25.946 42.5412 26.3864 42.5464 26.8269C42.5533 27.2673 42.5343 27.7077 42.4736 28.1429C42.4129 28.5781 42.3175 29.0081 42.1875 29.426C42.0522 29.8422 41.8858 30.2479 41.676 30.6311C41.4662 31.0126 41.2217 31.3767 40.92 31.6853L40.9182 31.6836Z" fill="white"/>
<path opacity="0.45" d="M37.5615 21.5011C37.8546 21.7092 38.099 21.9814 38.3227 22.264C38.5447 22.5484 38.7371 22.857 38.9088 23.1761C39.2469 23.8176 39.4827 24.5095 39.6422 25.2134L39.7463 25.7458C39.7723 25.9244 39.7914 26.103 39.8122 26.2815C39.8312 26.4601 39.8538 26.6387 39.8555 26.8191C39.8625 26.9994 39.8659 27.178 39.8694 27.3583C39.8729 27.7172 39.8347 28.0744 39.8122 28.4299C39.7619 28.7853 39.7064 29.1373 39.6301 29.4859C39.585 29.1287 39.5694 28.7767 39.5451 28.4264L39.4931 27.9028C39.4723 27.7294 39.4706 27.5543 39.4428 27.3826C39.3926 27.0375 39.37 26.6908 39.3024 26.3509C39.2729 26.181 39.2504 26.0093 39.2192 25.8394L39.1134 25.3331C38.9608 24.6621 38.7753 23.998 38.5239 23.3564C38.4562 23.1986 38.4007 23.0339 38.3245 22.8778L38.2187 22.6403C38.1823 22.5605 38.1389 22.486 38.1008 22.4079C37.9447 22.0958 37.7696 21.7941 37.5633 21.5028L37.5615 21.5011Z" fill="white"/>
<path opacity="0.45" d="M35.4199 23.4609C35.732 23.8823 35.947 24.3608 36.1187 24.8516C36.2869 25.344 36.4083 25.8538 36.4707 26.3705C36.5348 26.8872 36.5539 27.4108 36.5054 27.9293C36.4672 28.4477 36.3562 28.961 36.1811 29.4499C36.1308 28.9298 36.1222 28.4269 36.0771 27.9258C36.0441 27.4264 35.9904 26.9305 35.9297 26.4381C35.8707 25.9439 35.7927 25.4532 35.706 24.9591C35.6193 24.4649 35.524 23.9707 35.4199 23.4609V23.4609Z" fill="white"/>
<path d="M35.5635 18.4526C35.8461 18.5896 36.1149 18.7561 36.3767 18.9312C36.6385 19.1063 36.8917 19.2971 37.1362 19.4965C37.6234 19.8987 38.0846 20.3392 38.4973 20.8229C39.333 21.7818 39.9919 22.9071 40.422 24.1157C40.6422 24.7191 40.7861 25.3468 40.8814 25.9796C40.9803 26.6125 40.9976 27.2558 40.9716 27.8904C40.9057 29.1631 40.6179 30.4133 40.1376 31.5716C40.4029 30.3457 40.5624 29.1111 40.5468 27.8835C40.5225 26.6576 40.3179 25.4421 39.9104 24.296C39.503 23.1499 38.91 22.0679 38.1696 21.0882C37.7985 20.5992 37.3945 20.1311 36.9593 19.6924C36.5275 19.2485 36.0629 18.8341 35.5652 18.4526H35.5635Z" fill="#8CB53C"/>
<path d="M30.6753 18.4526C30.1777 18.8341 29.7147 19.2502 29.2812 19.6924C28.846 20.1328 28.4403 20.5992 28.071 21.0882C27.3306 22.0679 26.7376 23.1499 26.3301 24.296C25.9209 25.4438 25.718 26.6576 25.6937 27.8835C25.6799 29.1111 25.8377 30.3457 26.1029 31.5716C25.6209 30.4133 25.3348 29.1631 25.2689 27.8904C25.2429 27.2541 25.2585 26.6125 25.3591 25.9796C25.4527 25.3468 25.5984 24.7173 25.8186 24.1157C26.2486 22.9071 26.9075 21.7835 27.7432 20.8229C28.1559 20.3392 28.6171 19.8987 29.1044 19.4965C29.3506 19.2971 29.602 19.1063 29.8638 18.9312C30.1257 18.7561 30.3944 18.5896 30.6771 18.4526H30.6753Z" fill="#8CB53C"/>
<path d="M33.1228 21.6078C33.2355 22.4661 33.2927 23.3226 33.3361 24.1809C33.376 25.0392 33.395 25.8958 33.395 26.7541C33.395 27.6124 33.3777 28.469 33.3361 29.3273C33.2927 30.1856 33.2355 31.0421 33.1228 31.9004C33.0084 31.0421 32.9512 30.1856 32.9095 29.3273C32.8697 28.469 32.8506 27.6124 32.8506 26.7541C32.8506 25.8958 32.8697 25.0392 32.9095 24.1809C32.9529 23.3226 33.0101 22.4661 33.1228 21.6078Z" fill="#8CB53C"/>
<path d="M31.3546 20.6841C30.7685 21.4591 30.3108 22.3053 29.9432 23.1792C29.586 24.0566 29.3207 24.9686 29.1854 25.9015C29.1161 26.3679 29.0693 26.8378 29.0589 27.3094C29.0433 27.5452 29.0589 27.7811 29.0537 28.0186L29.071 28.3741L29.0779 28.5527L29.0918 28.7295C29.1681 29.678 29.338 30.623 29.5582 31.5732C29.1248 30.701 28.8283 29.7543 28.6687 28.7815C28.6219 28.5388 28.6028 28.2926 28.5734 28.0464C28.5595 27.8001 28.5369 27.5522 28.5422 27.3042C28.5335 26.8083 28.5751 26.3124 28.6462 25.82C28.6809 25.5738 28.7329 25.331 28.7849 25.0883C28.8473 24.8473 28.908 24.6062 28.986 24.3704C29.1386 23.8988 29.3276 23.4376 29.5582 23.0006C29.7836 22.5602 30.0489 22.1423 30.3437 21.7487C30.6471 21.362 30.9697 20.9893 31.3529 20.6841H31.3546Z" fill="#8CB53C"/>
<path d="M34.8875 20.6841C35.2707 20.9893 35.5949 21.362 35.8966 21.7487C36.1914 22.1423 36.4567 22.5602 36.6821 23.0006C36.9127 23.4393 37.1 23.8988 37.2543 24.3704C37.3341 24.6062 37.393 24.8473 37.4554 25.0883C37.5074 25.331 37.5595 25.5738 37.5941 25.82C37.6652 26.3107 37.7068 26.8083 37.6982 27.3042C37.7016 27.5522 37.6791 27.8001 37.667 28.0464C37.6375 28.2926 37.6202 28.5388 37.5716 28.7815C37.4121 29.7543 37.1173 30.701 36.6821 31.5732C36.9023 30.6247 37.0722 29.678 37.1485 28.7295L37.1624 28.5527L37.1693 28.3741L37.1867 28.0186C37.1832 27.7811 37.1971 27.5452 37.1815 27.3094C37.1711 26.8378 37.1242 26.3662 37.0549 25.9015C36.9196 24.9686 36.6561 24.0566 36.2972 23.1792C35.9296 22.3053 35.4718 21.4591 34.8857 20.6841H34.8875Z" fill="#8CB53C"/>
<path d="M59.0468 22.8061C57.7897 21.2039 56.0921 20.0058 54.4501 18.8441L54.1241 18.6134C54.0496 18.5597 53.975 18.5077 53.9005 18.4557C53.2225 17.9823 52.6867 17.6078 52.5203 16.9749C52.2792 16.0628 52.0573 15.1716 51.9879 14.2855C51.9047 13.2261 51.2562 12.1632 49.9974 12.1632C49.9904 12.1632 49.9818 12.1632 49.9748 12.1632C49.4078 12.1701 48.6501 12.4112 48.2652 13.5243C48.0554 14.1312 47.993 14.8768 47.9357 15.534C47.8941 16.0143 47.8438 16.6107 47.7398 16.8084C47.3913 17.469 46.6561 17.9944 45.9452 18.5025C45.7666 18.629 45.5828 18.7608 45.4077 18.8943C43.379 20.4185 41.456 21.9703 40.2249 24.1672C38.9678 26.4144 39.0268 28.9754 40.3827 31.0215C41.1231 32.1381 42.212 33.0068 43.4501 33.4646C44.5615 33.8772 45.7267 33.9639 46.8538 34.0472L47.048 34.061C47.5768 34.1009 48.1074 34.1113 48.6328 34.1113C48.9952 34.1113 49.3541 34.1061 49.7078 34.1009C50.0286 34.0957 50.3615 34.0905 50.684 34.0905C52.17 34.0871 53.5138 34.0697 54.8992 33.8911C56.2916 33.7125 57.429 33.2929 58.3775 32.6115C59.3606 31.9058 60.1513 30.8221 60.6056 29.5615C61.365 27.4548 60.8119 25.055 59.0485 22.8061H59.0468Z" fill="#FACA84"/>
<g style="mix-blend-mode:multiply" opacity="0.45">
<path d="M48.3499 30.3204C47.9286 26.9479 48.5615 23.083 49.4735 20.763C50.3873 18.4447 49.614 17.1789 50.1064 14.3682C50.2573 13.5117 50.5832 12.884 50.9647 12.4245C50.6959 12.2615 50.3734 12.1661 49.9954 12.1661C49.9885 12.1661 49.9798 12.1661 49.9729 12.1661C49.4059 12.1731 48.6482 12.4141 48.2632 13.5273C48.0534 14.1341 47.991 14.8797 47.9338 15.5369C47.8922 16.0172 47.8419 16.6137 47.7379 16.8113C47.3893 17.472 46.6541 17.9974 45.9432 18.5054C45.7646 18.632 45.5808 18.7637 45.4057 18.8973C43.377 20.4214 41.4541 21.9733 40.223 24.1702C38.9659 26.4173 39.0248 28.9783 40.3808 31.0244C41.1212 32.141 42.2101 33.0097 43.4481 33.4675C44.5596 33.8802 45.7248 33.9669 46.8518 34.0501L47.046 34.064C47.5749 34.1038 48.1054 34.1143 48.6308 34.1143C48.9932 34.1143 49.3521 34.1091 49.7059 34.1038C50.0266 34.0986 50.3596 34.0934 50.6821 34.0934C50.7826 34.0934 50.8832 34.0934 50.982 34.0934C49.7787 33.4033 48.5892 32.2364 48.3499 30.3221V30.3204Z" fill="#FACA84"/>
</g>
<path opacity="0.45" d="M53.6201 19.4277C54.2478 19.6757 54.8443 20.0034 55.4217 20.3623C55.9939 20.7282 56.5453 21.1305 57.055 21.5882C57.3099 21.8154 57.5596 22.0512 57.7902 22.3061C58.0226 22.5592 58.2462 22.821 58.4508 23.1002C58.6572 23.3776 58.8462 23.6689 59.0144 23.9724C59.1028 24.1215 59.1756 24.281 59.2554 24.4353C59.3248 24.5949 59.401 24.7526 59.46 24.9174C59.5848 25.2433 59.6819 25.5815 59.7513 25.9248C59.8207 26.2681 59.8675 26.6184 59.8709 26.9686C59.8796 27.6708 59.7686 28.3748 59.5242 29.0268C59.2866 29.6822 58.9277 30.2856 58.4925 30.8145C58.052 31.3381 57.5353 31.8028 56.9406 32.1288C57.4677 31.7074 57.9151 31.2063 58.2844 30.6601C58.6572 30.1157 58.945 29.5175 59.134 28.8967C59.5155 27.6518 59.4427 26.308 58.9676 25.1046C58.9138 24.952 58.8462 24.8047 58.782 24.6555C58.7092 24.5099 58.6433 24.3625 58.5618 24.2203C58.4092 23.9325 58.2306 23.6603 58.0451 23.3898C57.674 22.8505 57.2354 22.3546 56.7724 21.8847C56.5401 21.6489 56.2938 21.4252 56.0441 21.2068C55.7945 20.9865 55.5361 20.7767 55.2726 20.5721C54.7454 20.1612 54.194 19.7797 53.6201 19.4277V19.4277Z" fill="white"/>
<path opacity="0.45" d="M55.4844 24.1714C55.6942 24.35 55.8658 24.5667 56.0254 24.7939C56.1814 25.021 56.3132 25.2672 56.4259 25.5221C56.6478 26.0319 56.7814 26.5868 56.8091 27.1503C56.8403 27.7121 56.7623 28.2791 56.5924 28.8097C56.4172 29.3385 56.1554 29.8344 55.8017 30.2523C55.9612 29.7286 56.1017 29.2206 56.1901 28.7091C56.275 28.1976 56.3115 27.6861 56.2837 27.178C56.2594 26.6682 56.1745 26.1619 56.0375 25.6608C55.9005 25.1597 55.7202 24.6656 55.4861 24.1731L55.4844 24.1714Z" fill="white"/>
<path opacity="0.45" d="M52.3564 24.1714C52.672 24.5858 52.8853 25.0678 53.0413 25.5637C53.1957 26.0614 53.2876 26.5798 53.3084 27.1017C53.3309 27.6236 53.298 28.149 53.1818 28.6588C53.0795 29.1703 52.8888 29.6593 52.6373 30.1101C52.6443 29.9801 52.6581 29.8517 52.6738 29.7252C52.6876 29.5986 52.7119 29.4755 52.7154 29.3489C52.7258 29.2241 52.7362 29.0992 52.75 28.9744C52.7674 28.8513 52.7639 28.7247 52.7726 28.6016C52.8073 28.1074 52.8038 27.6167 52.783 27.126C52.7639 26.6353 52.7119 26.1463 52.6391 25.6556C52.568 25.1632 52.4744 24.6742 52.3564 24.1714V24.1714Z" fill="white"/>
<path opacity="0.45" d="M50.9609 13.2609C51.1395 13.3718 51.2713 13.5452 51.3806 13.7308C51.4846 13.9198 51.5505 14.1296 51.5852 14.3463C51.5956 14.4001 51.599 14.4538 51.6042 14.5093L51.6094 14.5908L51.6129 14.6636L51.6285 14.9566L51.6614 15.541C51.684 15.9294 51.7065 16.3178 51.7412 16.7027C51.762 16.8935 51.7776 17.0877 51.8123 17.2767C51.8452 17.4674 51.8834 17.6564 51.9631 17.8471C51.7915 17.7275 51.6684 17.5454 51.5678 17.3616C51.4655 17.1761 51.3962 16.9801 51.3337 16.7807C51.2193 16.3837 51.1569 15.9762 51.1343 15.5687C51.1239 15.3659 51.1222 15.1613 51.1291 14.9584C51.1343 14.8561 51.1378 14.7555 51.1499 14.6532L51.1621 14.5093C51.1673 14.4642 51.1725 14.4191 51.1725 14.374C51.1881 14.0117 51.1378 13.6337 50.9609 13.2626V13.2609Z" fill="white"/>
<path d="M53.9902 21.0091C54.9491 21.4894 55.797 22.1916 56.501 23.0239C57.1997 23.8596 57.7373 24.8671 57.9575 25.9681C58.1707 27.0674 58.0476 28.2274 57.6384 29.2452C57.231 30.2665 56.5998 31.1716 55.8351 31.9172C56.3935 31.0069 56.8755 30.0689 57.1668 29.084C57.4633 28.1026 57.524 27.0761 57.3367 26.0895C57.1391 25.1029 56.6952 24.17 56.1056 23.3239C55.5144 22.476 54.7982 21.7026 53.9902 21.0073V21.0091Z" fill="#AA7733"/>
<path d="M46.266 21.0092C45.458 21.7045 44.7401 22.4778 44.1506 23.3257C43.5611 24.1718 43.1189 25.1047 42.9195 26.0913C42.7322 27.0779 42.7929 28.1044 43.0894 29.0858C43.3807 30.0689 43.8628 31.0087 44.4211 31.9191C43.6564 31.1735 43.027 30.2683 42.6178 29.2471C42.2069 28.2275 42.0855 27.0692 42.2988 25.9699C42.519 24.8689 43.0565 23.8615 43.7553 23.0257C44.4575 22.1917 45.3071 21.4895 46.266 21.0109V21.0092Z" fill="#AA7733"/>
<path d="M51.7939 20.0088C52.1823 20.366 52.4997 20.7925 52.7962 21.2312C53.0857 21.6751 53.3389 22.1433 53.5556 22.6288C53.9856 23.6015 54.2717 24.6419 54.4087 25.6996C54.4729 26.2284 54.5145 26.7607 54.5041 27.293V27.4924L54.4937 27.6918C54.4885 27.8253 54.4815 27.9571 54.4729 28.0906C54.4451 28.3542 54.4295 28.6195 54.3862 28.8813C54.2353 29.9303 53.9579 30.9568 53.5348 31.9192C53.7047 30.884 53.84 29.8593 53.8903 28.8345L53.9024 28.642L53.9059 28.4496L53.9163 28.0664L53.9128 27.6832V27.4924L53.9041 27.3017L53.8885 26.9202L53.8591 26.5388C53.8521 26.4122 53.8365 26.2856 53.8244 26.159C53.8105 26.0325 53.8001 25.9059 53.7793 25.781C53.6492 24.7719 53.4204 23.7784 53.0927 22.8108C52.9297 22.3271 52.7389 21.8502 52.5257 21.3821C52.3124 20.9139 52.0731 20.4544 51.7939 20.0088V20.0088Z" fill="#AA7733"/>
<path d="M48.4629 20.0088C48.1838 20.4527 47.9445 20.9122 47.7312 21.3821C47.5179 21.8502 47.3272 22.3271 47.1642 22.8108C46.8365 23.7784 46.6059 24.7736 46.4776 25.781C46.4568 25.9059 46.4464 26.0342 46.4325 26.159C46.4204 26.2856 46.4047 26.4122 46.3978 26.5388L46.3683 26.9202L46.3527 27.3017L46.3441 27.4924V27.6832L46.3406 28.0664L46.351 28.4496L46.3545 28.642L46.3666 28.8345C46.4186 29.8593 46.5539 30.884 46.7221 31.9192C46.299 30.9586 46.0215 29.9303 45.8707 28.8813C45.8273 28.6195 45.81 28.3542 45.784 28.0906C45.7753 27.9589 45.7684 27.8253 45.7632 27.6918L45.7545 27.4924V27.293C45.7441 26.7607 45.7857 26.2284 45.8499 25.6996C45.9869 24.6419 46.273 23.6015 46.703 22.6288C46.9197 22.1433 47.1711 21.6734 47.4624 21.2312C47.7572 20.7925 48.0763 20.366 48.4647 20.0088H48.4629Z" fill="#AA7733"/>
<path d="M50.13 22.9059C50.2601 23.6567 50.3294 24.4075 50.378 25.1583C50.4248 25.9091 50.4456 26.6598 50.4456 27.4106C50.4456 28.1614 50.4248 28.9122 50.378 29.663C50.3294 30.4138 50.2618 31.1646 50.13 31.9154C49.9983 31.1646 49.9306 30.4138 49.8821 29.663C49.8353 28.9122 49.8145 28.1614 49.8145 27.4106C49.8145 26.6598 49.837 25.9091 49.8821 25.1583C49.9306 24.4075 49.9983 23.6567 50.13 22.9059Z" fill="#AA7733"/>
<g style="mix-blend-mode:multiply" opacity="0.45">
<path d="M49.8144 27.4115C49.8144 26.6607 49.8369 25.9099 49.882 25.1591C49.9306 24.4083 49.9982 23.6575 50.13 22.9067C47.6556 27.0179 50.13 31.9197 50.13 31.9197C49.9982 31.1689 49.9306 30.4181 49.882 29.6673C49.8352 28.9165 49.8144 28.1658 49.8144 27.415V27.4115Z" fill="#FACA84"/>
</g>
<g style="mix-blend-mode:multiply" opacity="0.45">
<path d="M20.7405 41.2503C26.8233 41.2503 31.7544 40.179 31.7544 38.8574C31.7544 37.5359 26.8233 36.4646 20.7405 36.4646C14.6577 36.4646 9.72656 37.5359 9.72656 38.8574C9.72656 40.179 14.6577 41.2503 20.7405 41.2503Z" fill="#B26928"/>
</g>
<path d="M31.3546 26.9837C29.8513 25.066 27.8191 23.632 25.8529 22.2431L25.4627 21.9674C25.3726 21.9033 25.2841 21.8408 25.194 21.7784C24.3825 21.2114 23.7409 20.7623 23.5415 20.0063C23.2537 18.9157 22.9884 17.8476 22.9034 16.7864C22.8029 15.5189 22.0278 14.2462 20.521 14.2462C20.5123 14.2462 20.5037 14.2462 20.4933 14.2462C19.8136 14.2532 18.9085 14.5427 18.4472 15.8744C18.1958 16.5992 18.1213 17.4921 18.0536 18.2793C18.0051 18.8533 17.9444 19.5677 17.8195 19.8052C17.4017 20.5959 16.5226 21.2253 15.6712 21.8339C15.4579 21.9865 15.2377 22.1443 15.0279 22.3021C12.5987 24.1279 10.2978 25.9832 8.82565 28.6118C7.3206 31.3012 7.39169 34.3668 9.01465 36.8151C9.90069 38.1519 11.2046 39.1906 12.6854 39.7402C14.0153 40.2344 15.4111 40.3384 16.7601 40.4373L16.9925 40.4546C17.6253 40.5014 18.26 40.5153 18.8894 40.5153C19.3229 40.5153 19.7529 40.5083 20.176 40.5031C20.5609 40.4979 20.958 40.491 21.3446 40.491C23.1236 40.4875 24.731 40.4667 26.3904 40.2535C28.0567 40.0385 29.4178 39.5373 30.5535 38.7207C31.7291 37.8762 32.6759 36.5793 33.2221 35.069C34.1306 32.5479 33.47 29.6765 31.3581 26.9837H31.3546Z" fill="#FACA84"/>
<g style="mix-blend-mode:multiply" opacity="0.45">
<path d="M18.5525 35.9766C18.0479 31.94 18.8056 27.3138 19.898 24.5395C20.9921 21.7635 20.0662 20.2498 20.6557 16.886C20.8361 15.8595 21.2262 15.1087 21.6839 14.559C21.3614 14.3648 20.9765 14.2487 20.5239 14.2487C20.5153 14.2487 20.5066 14.2487 20.4962 14.2487C19.8165 14.2556 18.9114 14.5452 18.4502 15.8768C18.1987 16.6016 18.1242 17.4946 18.0566 18.2818C18.008 18.8557 17.9473 19.5701 17.8225 19.8076C17.4046 20.5983 16.5255 21.2277 15.6741 21.8363C15.4609 21.9889 15.2407 22.1467 15.0309 22.3045C12.6016 24.1303 10.3007 25.9856 8.82858 28.6143C7.32353 31.3036 7.39462 34.3692 9.01758 36.8175C9.90362 38.1544 11.2075 39.193 12.6883 39.7427C14.0182 40.2368 15.4141 40.3409 16.763 40.4397L16.9954 40.457C17.6283 40.5039 18.2629 40.5177 18.8923 40.5177C19.3258 40.5177 19.7558 40.5108 20.1789 40.5056C20.5638 40.5004 20.9609 40.4935 21.3476 40.4935C21.4689 40.4935 21.5868 40.4935 21.7082 40.4935C20.2691 39.6681 18.8455 38.2706 18.5577 35.98L18.5525 35.9766Z" fill="#FACA84"/>
</g>
<path opacity="0.45" d="M24.8562 22.9413C25.6088 23.2395 26.3214 23.6314 27.0115 24.0597C27.6964 24.4966 28.357 24.9787 28.9656 25.5266C29.2708 25.7988 29.5691 26.0814 29.8447 26.3866C30.1222 26.69 30.3909 27.0039 30.6354 27.3368C30.8834 27.668 31.1088 28.0165 31.3099 28.3806C31.4157 28.5592 31.5041 28.7482 31.5978 28.9355C31.681 29.1262 31.7711 29.3152 31.844 29.5112C31.9931 29.9013 32.111 30.3053 32.1925 30.7162C32.274 31.1272 32.3329 31.5451 32.3364 31.9664C32.3451 32.8056 32.215 33.6501 31.9203 34.4303C31.6359 35.2141 31.2076 35.9354 30.6857 36.57C30.1569 37.1977 29.5396 37.7543 28.8287 38.1427C29.4598 37.6381 29.9956 37.0399 30.4378 36.3845C30.8834 35.7325 31.2284 35.0181 31.4538 34.2743C31.9099 32.7848 31.8232 31.1757 31.2544 29.7348C31.1903 29.551 31.1088 29.3759 31.0325 29.1973C30.9458 29.0239 30.8678 28.8453 30.7707 28.6771C30.5886 28.3321 30.3736 28.0061 30.1517 27.6836C29.7078 27.0368 29.1841 26.4456 28.6275 25.882C28.3501 25.5994 28.0553 25.3324 27.7571 25.0706C27.4589 24.807 27.1502 24.5556 26.8329 24.3111C26.2018 23.8187 25.5429 23.3626 24.8545 22.9413H24.8562Z" fill="white"/>
<path opacity="0.45" d="M27.085 28.6167C27.3364 28.83 27.541 29.0901 27.7317 29.3606C27.919 29.6328 28.0768 29.9258 28.2103 30.231C28.4773 30.8414 28.6351 31.5055 28.668 32.1782C28.7062 32.851 28.6126 33.529 28.408 34.1636C28.1981 34.7965 27.8843 35.3895 27.463 35.8906C27.6537 35.2646 27.8219 34.656 27.9277 34.0439C28.03 33.4319 28.0716 32.8198 28.0404 32.2112C28.0109 31.6008 27.9103 30.9939 27.7456 30.3957C27.5826 29.7958 27.3659 29.2045 27.085 28.615V28.6167Z" fill="white"/>
<path opacity="0.45" d="M23.3418 28.6176C23.7198 29.1135 23.9747 29.6909 24.1602 30.2839C24.344 30.8786 24.455 31.4993 24.481 32.1236C24.5087 32.7478 24.4689 33.3772 24.3301 33.9875C24.2088 34.5996 23.9782 35.1857 23.6782 35.7249C23.6868 35.5689 23.7042 35.4163 23.7215 35.2637C23.7371 35.1129 23.7666 34.9655 23.7701 34.8129C23.7822 34.662 23.7961 34.5129 23.8117 34.3655C23.8325 34.2182 23.8273 34.0673 23.8394 33.9199C23.881 33.3286 23.8758 32.7408 23.8516 32.1548C23.829 31.567 23.7666 30.9826 23.6799 30.3948C23.5932 29.807 23.4822 29.221 23.3418 28.6176Z" fill="white"/>
<path opacity="0.45" d="M21.6689 15.559C21.8822 15.6908 22.0417 15.8988 22.1701 16.1208C22.2932 16.3462 22.3747 16.5993 22.4145 16.856C22.4267 16.9201 22.4319 16.986 22.4371 17.0502L22.444 17.1473L22.4492 17.234L22.4683 17.5842L22.5064 18.283C22.5324 18.7494 22.5602 19.2124 22.6018 19.6736C22.6261 19.9025 22.6469 20.1348 22.6868 20.362C22.7266 20.5909 22.7717 20.8163 22.8688 21.0451C22.6625 20.9012 22.5168 20.6828 22.3955 20.4643C22.2724 20.2423 22.1909 20.0065 22.1163 19.769C21.9793 19.2921 21.9048 18.8049 21.8787 18.3194C21.8666 18.0767 21.8631 17.8322 21.8735 17.5894C21.8805 17.468 21.884 17.3467 21.8978 17.2236L21.9134 17.0502C21.9186 16.9964 21.9256 16.9409 21.9256 16.8872C21.9429 16.452 21.884 16.0011 21.6724 15.5573L21.6689 15.559Z" fill="white"/>
<path d="M25.2969 24.8317C26.443 25.4056 27.4591 26.2466 28.3 27.2436C29.1358 28.2441 29.7791 29.4509 30.0444 30.767C30.2993 32.083 30.1536 33.4702 29.6629 34.6891C29.1739 35.9115 28.4197 36.9935 27.5059 37.8865C28.1752 36.7976 28.7509 35.674 29.1011 34.4949C29.4566 33.321 29.5277 32.0917 29.304 30.9109C29.0664 29.7318 28.5359 28.6134 27.8319 27.6008C27.1244 26.5865 26.2661 25.6605 25.2986 24.8282L25.2969 24.8317Z" fill="#AA7733"/>
<path d="M16.0536 24.8328C15.0861 25.6651 14.2278 26.591 13.5204 27.6053C12.8164 28.6179 12.2841 29.7363 12.0483 30.9154C11.8246 32.0962 11.8957 33.3238 12.2511 34.4994C12.5996 35.6768 13.177 36.8004 13.8463 37.891C12.9326 36.998 12.1766 35.916 11.6893 34.6936C11.1986 33.4747 11.0512 32.0875 11.3079 30.7715C11.5714 29.4554 12.2147 28.2486 13.0522 27.2481C13.8932 26.2511 14.9092 25.4102 16.0554 24.8362L16.0536 24.8328Z" fill="#AA7733"/>
<path d="M22.6689 23.634C23.1336 24.0623 23.5134 24.5721 23.8671 25.0975C24.2139 25.6281 24.5156 26.1898 24.7757 26.7707C25.2907 27.9359 25.634 29.1791 25.797 30.4449C25.8733 31.0778 25.9235 31.7159 25.9114 32.3522V32.5915L25.8993 32.8308C25.8923 32.9903 25.8854 33.1481 25.875 33.3076C25.842 33.6232 25.823 33.9405 25.771 34.2544C25.5906 35.5097 25.2577 36.7391 24.7514 37.8904C24.9543 36.6507 25.1173 35.4248 25.1779 34.1989L25.1918 33.97L25.197 33.7394L25.2092 33.2799L25.2057 32.8221V32.5933L25.1953 32.3644L25.1779 31.9066L25.1433 31.4506C25.1363 31.298 25.1173 31.1472 25.1017 30.9963C25.0843 30.8455 25.0722 30.6929 25.0479 30.5437C24.8936 29.3369 24.6179 28.1457 24.226 26.9892C24.0301 26.4101 23.8012 25.8396 23.5463 25.2795C23.2897 24.7177 23.0036 24.1681 22.6707 23.6375L22.6689 23.634Z" fill="#AA7733"/>
<path d="M18.683 23.6342C18.3501 24.1665 18.064 24.7162 17.8074 25.2762C17.5525 25.838 17.3236 26.4068 17.1277 26.9859C16.7358 28.1442 16.4601 29.3336 16.3058 30.5405C16.2815 30.6913 16.2694 30.8422 16.252 30.993C16.2364 31.1439 16.2174 31.2947 16.2104 31.4473L16.1757 31.9033L16.1584 32.3611L16.148 32.59V32.8188L16.1428 33.2766L16.1549 33.7361L16.1601 33.9667L16.174 34.1956C16.2347 35.4215 16.3977 36.6474 16.6006 37.8871C16.0942 36.7358 15.7631 35.5082 15.581 34.2511C15.5272 33.9372 15.5099 33.6199 15.477 33.3043C15.4666 33.1466 15.4596 32.987 15.4527 32.8275L15.4423 32.5882V32.3489C15.4301 31.7109 15.4787 31.0745 15.555 30.4416C15.718 29.1759 16.0613 27.9309 16.5763 26.7674C16.8346 26.1866 17.1381 25.6248 17.4849 25.0942C17.8386 24.5688 18.2183 24.059 18.683 23.6307V23.6342Z" fill="#AA7733"/>
<path d="M20.6783 27.1035C20.8344 28.0017 20.9159 28.9016 20.9748 29.7998C21.0303 30.698 21.0563 31.5979 21.0563 32.496C21.0563 33.3942 21.0303 34.2941 20.9748 35.1923C20.9159 36.0905 20.8344 36.9904 20.6766 37.8886C20.5188 36.9904 20.4373 36.0905 20.3784 35.1923C20.3229 34.2941 20.2969 33.3942 20.2969 32.496C20.2969 31.5979 20.3229 30.698 20.3784 29.7998C20.4373 28.9016 20.5188 28.0017 20.6749 27.1035H20.6783Z" fill="#AA7733"/>
<g style="mix-blend-mode:multiply" opacity="0.45">
<path d="M20.2976 32.496C20.2976 31.5979 20.3236 30.698 20.3791 29.7998C20.4381 28.9016 20.5196 28.0017 20.6756 27.1035C17.7141 32.0227 20.6756 37.8903 20.6756 37.8903C20.5178 36.9921 20.4363 36.0922 20.3774 35.194C20.3219 34.2959 20.2959 33.396 20.2959 32.4978L20.2976 32.496Z" fill="#FACA84"/>
</g>
<g style="mix-blend-mode:multiply" opacity="0.45">
<path d="M61.5733 41.2503C67.1065 41.2503 71.592 40.179 71.592 38.8574C71.592 37.5359 67.1065 36.4646 61.5733 36.4646C56.0402 36.4646 51.5547 37.5359 51.5547 38.8574C51.5547 40.179 56.0402 41.2503 61.5733 41.2503Z" fill="#B26928"/>
</g>
<path d="M71.7538 26.7369C70.2228 24.5625 68.09 22.95 66.0232 21.3201C65.0557 20.5554 64.1055 19.9173 63.8124 18.6828C63.5246 17.4638 63.2437 16.2206 63.1553 14.967C63.0911 14.0671 62.6524 12.888 61.5739 12.9001C59.5643 12.9244 60.2076 17.4066 59.6302 18.6238C59.0146 19.9225 57.6951 20.7843 56.6218 21.6825C54.2758 23.647 52.0217 25.6723 50.6259 28.45C49.3012 31.0856 49.263 34.2414 50.7871 36.7989C51.5518 38.082 52.6823 39.1467 54.066 39.7189C55.3508 40.2494 56.7571 40.3413 58.1269 40.4558C59.5452 40.5737 60.9861 40.4957 62.4079 40.4922C64.0743 40.4887 65.6833 40.4731 67.3392 40.2356C68.7385 40.0344 69.9956 39.5905 71.1071 38.701C72.2532 37.7838 73.0595 36.4018 73.5068 35.0216C74.4414 32.1364 73.4305 29.1245 71.7521 26.7404L71.7538 26.7369ZM61.5531 14.041C61.5531 14.041 61.5566 14.041 61.5601 14.041C61.567 14.0428 61.5739 14.0462 61.5843 14.048C61.5705 14.0445 61.5601 14.041 61.5514 14.0393L61.5531 14.041Z" fill="#FA9C84"/>
<g style="mix-blend-mode:multiply" opacity="0.45">
<path d="M58.1271 40.4521C58.3958 40.4747 58.6663 40.4885 58.9386 40.4989C56.5856 39.3996 54.6991 37.3831 55.1239 33.6863C56.0065 25.9911 58.2363 26.3691 60.3379 23.3417C62.4394 20.3143 61.3886 18.296 61.6002 15.4367C61.6747 14.4189 62.0336 13.7218 62.4619 13.245C62.233 13.0317 61.9417 12.8965 61.5759 12.9C59.5662 12.9242 60.2095 17.4065 59.6321 18.6237C59.0166 19.9224 57.6971 20.7841 56.6238 21.6823C54.2778 23.6469 52.0237 25.6721 50.6278 28.4499C49.3031 31.0854 49.265 34.2412 50.7891 36.7987C51.5538 38.0818 52.6843 39.1465 54.068 39.7187C55.3528 40.2493 56.759 40.3412 58.1288 40.4556L58.1271 40.4521ZM61.5533 14.0409C61.5533 14.0409 61.5568 14.0409 61.5603 14.0409C61.5672 14.0426 61.5741 14.0461 61.5845 14.0478C61.5707 14.0444 61.5603 14.0409 61.5516 14.0392L61.5533 14.0409Z" fill="#FA9C84"/>
</g>
<path d="M64.584 22.371C64.9117 22.5305 65.2221 22.723 65.5255 22.9258C65.8289 23.1287 66.122 23.3489 66.4063 23.5813C66.9716 24.0477 67.5039 24.5575 67.9825 25.1193C68.9518 26.2307 69.7147 27.5346 70.2123 28.9339C70.4672 29.6327 70.6354 30.3609 70.7446 31.0944C70.8591 31.8278 70.8799 32.5717 70.8487 33.3086C70.7724 34.7825 70.4395 36.232 69.8811 37.5741C70.1881 36.154 70.3718 34.7235 70.3562 33.3017C70.3285 31.8816 70.0909 30.4736 69.6176 29.1454C69.146 27.8172 68.4593 26.5654 67.601 25.4296C67.171 24.8626 66.7028 24.3216 66.1983 23.8119C65.6972 23.2986 65.1596 22.8166 64.584 22.3744V22.371Z" fill="#B54B39"/>
<path d="M58.9213 22.3708C58.3457 22.8129 57.8082 23.2932 57.307 23.8082C56.8025 24.318 56.3343 24.859 55.9043 25.426C55.046 26.5617 54.3594 27.8136 53.8877 29.1418C53.4144 30.47 53.1786 31.8779 53.1491 33.298C53.1317 34.7198 53.3173 36.1503 53.6242 37.5704C53.0658 36.2284 52.7329 34.7805 52.6566 33.3049C52.6254 32.568 52.6462 31.8242 52.7607 31.0907C52.8699 30.3573 53.0381 29.629 53.2913 28.9302C53.7906 27.531 54.5536 26.227 55.5211 25.1156C55.9997 24.5538 56.5337 24.044 57.0972 23.5776C57.3816 23.347 57.6746 23.1268 57.9781 22.9222C58.2815 22.7193 58.5919 22.5268 58.9196 22.3673L58.9213 22.3708Z" fill="#B54B39"/>
<path d="M61.7521 26.0289C61.8839 27.0225 61.9498 28.016 62.0001 29.0096C62.0469 30.0031 62.0677 30.9966 62.0677 31.9902C62.0677 32.9837 62.0469 33.9773 62.0001 34.9708C61.9498 35.9644 61.8839 36.9579 61.7521 37.9514C61.6203 36.9579 61.5544 35.9644 61.5041 34.9708C61.4573 33.9773 61.4365 32.9837 61.4365 31.9902C61.4365 30.9966 61.4591 30.0031 61.5041 29.0096C61.5544 28.016 61.6203 27.0225 61.7521 26.0289V26.0289Z" fill="#B54B39"/>
<g style="mix-blend-mode:multiply" opacity="0.45">
<path d="M61.4388 31.9902C61.4388 30.9966 61.4614 30.0031 61.5065 29.0096C61.5568 28.016 61.6226 27.0225 61.7544 26.0289C58.5848 31.5775 61.7544 37.9514 61.7544 37.9514C61.6226 36.9579 61.5568 35.9644 61.5065 34.9708C61.4597 33.9773 61.4388 32.9837 61.4388 31.9902Z" fill="#FA9C84"/>
</g>
<path d="M59.7055 24.9592C59.0258 25.8574 58.4952 26.8371 58.0687 27.8497C57.6543 28.8675 57.3474 29.9217 57.1913 31.0037C57.1116 31.543 57.0561 32.0874 57.0439 32.6353C57.0266 32.9093 57.0439 33.1833 57.0387 33.4572L57.0578 33.8682L57.0647 34.0745L57.0821 34.2808C57.1705 35.3802 57.3682 36.4743 57.6231 37.5753C57.1202 36.5644 56.7786 35.4686 56.5931 34.3398C56.5376 34.0589 56.5168 33.7728 56.4821 33.4884C56.4665 33.2023 56.4405 32.9162 56.4457 32.6284C56.4353 32.0545 56.4839 31.4788 56.5671 30.9101C56.6087 30.6257 56.6677 30.3431 56.7284 30.0622C56.8012 29.783 56.8705 29.5039 56.9624 29.2316C57.1393 28.6854 57.3578 28.1514 57.6248 27.6434C57.8849 27.1336 58.1935 26.6481 58.5351 26.1938C58.8854 25.7447 59.2616 25.3129 59.7055 24.961V24.9592Z" fill="#B54B39"/>
<path d="M63.7998 24.9579C64.2437 25.3099 64.6182 25.7434 64.9702 26.1907C65.3118 26.6468 65.6204 27.1305 65.8805 27.6403C66.1475 28.1483 66.3643 28.6807 66.5429 29.2286C66.6348 29.5008 66.7041 29.78 66.777 30.0591C66.8377 30.34 66.8966 30.6227 66.9382 30.907C67.0215 31.4758 67.07 32.0514 67.0596 32.6254C67.0631 32.9132 67.0388 33.1993 67.0232 33.4854C66.9902 33.7697 66.9677 34.0558 66.9122 34.3367C66.7284 35.4638 66.3851 36.5596 65.8823 37.5723C66.1371 36.4729 66.3348 35.3771 66.4232 34.2778L66.4406 34.0715L66.4475 33.8651L66.4666 33.4542C66.4614 33.1802 66.4787 32.9062 66.4614 32.6323C66.4493 32.0844 66.3955 31.5399 66.314 31.0007C66.158 29.9187 65.851 28.8645 65.4366 27.8466C65.0101 26.834 64.4812 25.8544 63.7998 24.9562V24.9579Z" fill="#B54B39"/>
<g style="mix-blend-mode:multiply" opacity="0.45">
<path d="M56.5321 28.8688C55.3027 31.7384 56.2581 35.7126 57.6245 37.5731C57.1216 36.5622 56.78 35.4664 56.5945 34.3376C56.539 34.0567 56.5182 33.7706 56.4835 33.4862C56.4679 33.2001 56.4419 32.914 56.4471 32.6262C56.4367 32.0523 56.4853 31.4766 56.5685 30.9079C56.6101 30.6235 56.6691 30.3409 56.7297 30.06C56.8026 29.7808 56.8719 29.5016 56.9638 29.2294C57.1407 28.6832 57.3592 28.1492 57.6262 27.6411C57.8863 27.1314 58.1949 26.6459 58.5365 26.1916C58.8867 25.7425 59.263 25.3107 59.7069 24.9587C59.7069 24.9587 57.7614 25.9991 56.5321 28.8688V28.8688Z" fill="#FA9C84"/>
</g>
<path opacity="0.45" d="M70.7883 37.6987C70.9409 37.501 71.0675 37.286 71.1871 37.0693C71.3068 36.8526 71.4125 36.6289 71.5096 36.4017C71.7004 35.9474 71.8547 35.4775 71.9622 35.0007C72.1876 34.0471 72.2483 33.0622 72.1841 32.0912C72.1096 31.1202 71.9379 30.1509 71.6206 29.2406C71.3068 28.3268 70.8559 27.4616 70.2941 26.6709C69.7428 25.8733 69.0787 25.1537 68.3573 24.4948C67.9967 24.1636 67.6204 23.8481 67.2338 23.5446C66.8454 23.2429 66.4483 22.9482 66.046 22.6534C65.6437 22.3551 65.238 22.0552 64.8565 21.7188C64.4751 21.3824 64.1109 21.0148 63.8179 20.5883C63.5283 20.1617 63.3099 19.6849 63.1989 19.1873C63.0827 18.6914 63.0619 18.1833 63.0931 17.6857C63.1278 18.1833 63.2093 18.6775 63.3654 19.1404C63.5214 19.6051 63.759 20.0334 64.0641 20.4045C64.3676 20.779 64.73 21.105 65.1184 21.4015C65.5085 21.6963 65.9142 21.9789 66.3286 22.2511C67.1644 22.7938 67.9898 23.3851 68.7579 24.0509C69.5208 24.7202 70.2196 25.4728 70.8143 26.3085C71.3987 27.1495 71.8755 28.0737 72.1893 29.0516C72.3437 29.5406 72.4581 30.0434 72.5396 30.548C72.6228 31.0508 72.6696 31.5606 72.6766 32.0704C72.6852 32.5801 72.6627 33.0917 72.5933 33.5962C72.5222 34.1008 72.413 34.5984 72.2622 35.0839C72.1061 35.566 71.9119 36.0376 71.6692 36.4798C71.4264 36.9202 71.142 37.3433 70.7918 37.7022L70.7883 37.6987Z" fill="white"/>
<path opacity="0.45" d="M66.8965 25.9038C67.2363 26.1448 67.519 26.4604 67.7791 26.7864C68.0374 27.1176 68.2594 27.473 68.4588 27.8441C68.8506 28.5879 69.1229 29.389 69.3084 30.2057L69.4298 30.8212C69.461 31.0276 69.4818 31.2357 69.5061 31.4437C69.5286 31.6518 69.5546 31.8581 69.5546 32.0662C69.5615 32.2743 69.5667 32.4823 69.5702 32.6904C69.5737 33.1066 69.5286 33.521 69.5026 33.9319C69.4436 34.3429 69.3795 34.7521 69.2928 35.1561C69.2408 34.7417 69.2217 34.3342 69.1939 33.9284L69.135 33.3216C69.1124 33.1204 69.109 32.9176 69.076 32.7182C69.0171 32.3194 68.9911 31.9171 68.913 31.5235C68.8784 31.3258 68.8541 31.1264 68.8159 30.9305L68.6928 30.3444C68.516 29.5659 68.301 28.7977 68.0097 28.0539C67.9316 27.8718 67.8658 27.6794 67.7791 27.499L67.6559 27.2233C67.6143 27.1314 67.564 27.0447 67.5207 26.9546C67.3404 26.5939 67.1375 26.2437 66.8982 25.9055L66.8965 25.9038Z" fill="white"/>
<path opacity="0.45" d="M64.4148 28.1759C64.7755 28.6631 65.0269 29.218 65.2246 29.7867C65.4205 30.3572 65.5592 30.9467 65.632 31.5467C65.7066 32.1449 65.7274 32.7518 65.6719 33.3534C65.6286 33.9534 65.5003 34.5498 65.2974 35.1151C65.2402 34.5117 65.2298 33.9291 65.176 33.35C65.1396 32.7708 65.0754 32.1986 65.0061 31.6264C64.9385 31.0542 64.8466 30.4838 64.746 29.9133C64.6472 29.3394 64.5345 28.7689 64.4131 28.1776L64.4148 28.1759Z" fill="white"/>
<g style="mix-blend-mode:multiply" opacity="0.45">
<path d="M40.8024 47.5106C47.2932 47.5106 52.555 46.4393 52.555 45.1178C52.555 43.7963 47.2932 42.725 40.8024 42.725C34.3116 42.725 29.0498 43.7963 29.0498 45.1178C29.0498 46.4393 34.3116 47.5106 40.8024 47.5106Z" fill="#B26928"/>
</g>
<path d="M50.8036 33.0883C49.2726 30.914 47.1398 29.3014 45.073 27.6715C44.1055 26.9069 43.1553 26.2688 42.8622 25.0342C42.5744 23.8153 42.2935 22.572 42.2051 21.3184C42.1409 20.4185 41.7022 19.2394 40.6237 19.2516C38.6141 19.2758 39.2574 23.758 38.68 24.9753C38.0644 26.274 36.7449 27.1357 35.6716 28.0339C33.3256 29.9985 31.0715 32.0237 29.6757 34.8015C28.351 37.437 28.3128 40.5928 29.8369 43.1503C30.6016 44.4335 31.7321 45.4981 33.1158 46.0703C34.4007 46.6009 35.8069 46.6928 37.1767 46.8072C38.595 46.9251 40.0359 46.8471 41.4578 46.8436C43.1241 46.8402 44.7331 46.8246 46.3891 46.587C47.7883 46.3859 49.0454 45.942 50.1569 45.0525C51.303 44.1352 52.1093 42.7533 52.5566 41.3731C53.4912 38.4878 52.4804 35.476 50.8019 33.0918L50.8036 33.0883ZM40.6029 20.3925C40.6029 20.3925 40.6064 20.3925 40.6099 20.3925C40.6168 20.3942 40.6237 20.3977 40.6341 20.3994C40.6203 20.396 40.6099 20.3925 40.6012 20.3908L40.6029 20.3925Z" fill="#FA9C84"/>
<g style="mix-blend-mode:multiply" opacity="0.45">
<path d="M37.1798 46.8037C37.4486 46.8262 37.7191 46.8401 37.9913 46.8505C35.6384 45.7512 33.7518 43.7346 34.1767 40.0379C35.0592 32.3427 37.2891 32.7207 39.3906 29.6933C41.4938 26.6658 40.4413 24.6475 40.6529 21.7883C40.7274 20.7705 41.0864 20.0734 41.5147 19.5966C41.2858 19.3833 40.9945 19.2481 40.6286 19.2515C38.619 19.2758 39.2623 23.758 38.6849 24.9752C38.0693 26.2739 36.7498 27.1357 35.6765 28.0339C33.3305 29.9984 31.0764 32.0237 29.6806 34.8014C28.3558 37.437 28.3177 40.5927 29.8418 43.1503C30.6065 44.4334 31.737 45.498 33.1207 46.0702C34.4055 46.6008 35.8118 46.6927 37.1816 46.8072L37.1798 46.8037ZM40.6061 20.3925C40.6061 20.3925 40.6095 20.3925 40.613 20.3925C40.6199 20.3942 40.6269 20.3977 40.6373 20.3994C40.6234 20.3959 40.613 20.3925 40.6043 20.3907L40.6061 20.3925Z" fill="#FA9C84"/>
</g>
<path d="M43.6357 28.7253C43.9635 28.8849 44.2738 29.0773 44.5773 29.2802C44.8807 29.4831 45.1737 29.7033 45.4581 29.9356C46.0234 30.4021 46.5557 30.9118 47.0342 31.4736C48.0035 32.5851 48.7664 33.889 49.2641 35.2883C49.519 35.987 49.6872 36.7153 49.7964 37.4488C49.9108 38.1822 49.9316 38.9261 49.9004 39.663C49.8241 41.1368 49.4912 42.5864 48.9329 43.9285C49.2398 42.5084 49.4236 41.0779 49.408 39.656C49.3803 38.236 49.1427 36.828 48.6693 35.4998C48.1977 34.1716 47.5111 32.9197 46.6528 31.784C46.2228 31.217 45.7546 30.676 45.25 30.1662C44.7489 29.653 44.2114 29.171 43.6357 28.7288V28.7253Z" fill="#B54B39"/>
<path d="M37.9731 28.7258C37.3974 29.1679 36.8599 29.6482 36.3588 30.1632C35.8542 30.673 35.3861 31.214 34.9561 31.7809C34.0978 32.9167 33.4111 34.1686 32.9395 35.4968C32.4661 36.825 32.2303 38.2329 32.2008 39.653C32.1835 41.0748 32.369 42.5053 32.6759 43.9254C32.1176 42.5833 31.7847 41.1355 31.7084 39.6599C31.6772 38.923 31.698 38.1791 31.8124 37.4457C31.9217 36.7122 32.0899 35.984 32.3448 35.2852C32.8441 33.8859 33.6071 32.582 34.5746 31.4706C35.0532 30.9088 35.5872 30.399 36.1507 29.9326C36.4351 29.702 36.7281 29.4818 37.0316 29.2772C37.335 29.0743 37.6454 28.8818 37.9731 28.7223V28.7258Z" fill="#B54B39"/>
<path d="M40.8029 32.3831C40.9347 33.3766 41.0005 34.3701 41.0508 35.3637C41.0976 36.3572 41.1185 37.3508 41.1185 38.3443C41.1185 39.3378 41.0976 40.3314 41.0508 41.3249C41.0005 42.3185 40.9347 43.312 40.8029 44.3056C40.6711 43.312 40.6052 42.3185 40.5549 41.3249C40.5081 40.3314 40.4873 39.3378 40.4873 38.3443C40.4873 37.3508 40.5098 36.3572 40.5549 35.3637C40.6052 34.3701 40.6711 33.3766 40.8029 32.3831Z" fill="#B54B39"/>
<g style="mix-blend-mode:multiply" opacity="0.45">
<path d="M40.4857 38.3443C40.4857 37.3508 40.5083 36.3572 40.5534 35.3637C40.6036 34.3701 40.6695 33.3766 40.8013 32.3831C37.6317 37.9316 40.8013 44.3056 40.8013 44.3056C40.6695 43.312 40.6036 42.3185 40.5534 41.3249C40.5065 40.3314 40.4857 39.3378 40.4857 38.3443Z" fill="#FA9C84"/>
</g>
<path d="M38.7553 31.3114C38.0756 32.2096 37.545 33.1893 37.1185 34.2019C36.7041 35.2197 36.3972 36.2739 36.2411 37.3559C36.1614 37.8951 36.1059 38.4396 36.0937 38.9875C36.0764 39.2615 36.0937 39.5354 36.0885 39.8094L36.1076 40.2203L36.1145 40.4267L36.1319 40.633C36.2203 41.7323 36.418 42.8264 36.6729 43.9275C36.17 42.9166 35.8285 41.8208 35.6429 40.692C35.5874 40.4111 35.5666 40.125 35.5319 39.8406C35.5163 39.5545 35.4903 39.2684 35.4955 38.9806C35.4851 38.4066 35.5337 37.831 35.6169 37.2623C35.6585 36.9779 35.7175 36.6953 35.7782 36.4144C35.851 36.1352 35.9203 35.856 36.0122 35.5838C36.1891 35.0376 36.4076 34.5036 36.6746 33.9955C36.9347 33.4858 37.2433 33.0002 37.5849 32.546C37.9352 32.0969 38.3114 31.6651 38.7553 31.3131V31.3114Z" fill="#B54B39"/>
<path d="M42.8496 31.3111C43.2935 31.663 43.668 32.0965 44.02 32.5439C44.3616 32.9999 44.6702 33.4837 44.9303 33.9934C45.1974 34.5015 45.4141 35.0338 45.5927 35.5817C45.6846 35.854 45.7539 36.1331 45.8268 36.4123C45.8875 36.6932 45.9464 36.9758 45.988 37.2602C46.0713 37.8289 46.1198 38.4046 46.1094 38.9785C46.1129 39.2663 46.0886 39.5524 46.073 39.8385C46.04 40.1229 46.0175 40.409 45.962 40.6899C45.7782 41.8169 45.4349 42.9128 44.9321 43.9254C45.187 42.8261 45.3846 41.7302 45.473 40.6309L45.4904 40.4246L45.4973 40.2183L45.5164 39.8073C45.5112 39.5334 45.5285 39.2594 45.5112 38.9854C45.4991 38.4375 45.4453 37.8931 45.3638 37.3538C45.2078 36.2736 44.9009 35.2176 44.4864 34.1998C44.0599 33.1872 43.531 32.2075 42.8496 31.3093V31.3111Z" fill="#B54B39"/>
<g style="mix-blend-mode:multiply" opacity="0.45">
<path d="M35.5819 35.2206C34.3525 38.0902 35.3079 42.0644 36.6743 43.9249C36.1714 42.914 35.8298 41.8182 35.6443 40.6894C35.5888 40.4085 35.568 40.1224 35.5333 39.838C35.5177 39.5519 35.4917 39.2658 35.4969 38.978C35.4865 38.4041 35.5351 37.8284 35.6183 37.2597C35.6599 36.9753 35.7189 36.6927 35.7795 36.4118C35.8524 36.1326 35.9217 35.8534 36.0136 35.5812C36.1905 35.035 36.409 34.501 36.676 33.9929C36.9361 33.4832 37.2447 32.9977 37.5863 32.5434C37.9366 32.0943 38.3128 31.6625 38.7567 31.3105C38.7567 31.3105 36.8112 32.3509 35.5819 35.2206V35.2206Z" fill="#FA9C84"/>
</g>
<path opacity="0.45" d="M49.8391 44.0508C49.9917 43.8531 50.1183 43.6381 50.2379 43.4214C50.3575 43.2046 50.4633 42.9809 50.5604 42.7538C50.7511 42.2995 50.9055 41.8296 51.013 41.3528C51.2384 40.3991 51.2991 39.4142 51.2349 38.4432C51.1604 37.4722 50.9887 36.503 50.6714 35.5926C50.3575 34.6789 49.9067 33.8136 49.3449 33.023C48.7935 32.2253 48.1294 31.5058 47.4081 30.8469C47.0475 30.5157 46.6712 30.2001 46.2845 29.8967C45.8961 29.595 45.4991 29.3002 45.0968 29.0054C44.6945 28.7072 44.2888 28.4072 43.9073 28.0708C43.5259 27.7345 43.1617 27.3669 42.8687 26.9403C42.5791 26.5138 42.3606 26.0369 42.2497 25.5393C42.1335 25.0434 42.1127 24.5354 42.1439 24.0377C42.1786 24.5354 42.2601 25.0295 42.4161 25.4925C42.5722 25.9572 42.8097 26.3855 43.1149 26.7565C43.4183 27.1311 43.7807 27.457 44.1691 27.7535C44.5593 28.0483 44.965 28.3309 45.3794 28.6032C46.2152 29.1459 47.0405 29.7372 47.8087 30.403C48.5716 31.0723 49.2704 31.8248 49.8651 32.6606C50.4494 33.5015 50.9263 34.4257 51.2401 35.4036C51.3944 35.8926 51.5089 36.3955 51.5904 36.9C51.6736 37.4029 51.7204 37.9127 51.7274 38.4224C51.736 38.9322 51.7135 39.4437 51.6441 39.9483C51.573 40.4529 51.4638 40.9505 51.3129 41.436C51.1569 41.918 50.9627 42.3897 50.7199 42.8318C50.4772 43.2722 50.1928 43.6953 49.8426 44.0542L49.8391 44.0508Z" fill="white"/>
<path opacity="0.45" d="M45.9482 32.2592C46.2881 32.5002 46.5707 32.8157 46.8308 33.1417C47.0892 33.4729 47.3111 33.8284 47.5105 34.1994C47.9024 34.9433 48.1746 35.7444 48.3601 36.561L48.4815 37.1766C48.5127 37.3829 48.5335 37.591 48.5578 37.7991C48.5803 38.0071 48.6064 38.2135 48.6064 38.4215C48.6133 38.6296 48.6185 38.8377 48.622 39.0458C48.6254 39.4619 48.5803 39.8763 48.5543 40.2873C48.4954 40.6982 48.4312 41.1074 48.3445 41.5114C48.2925 41.097 48.2734 40.6895 48.2457 40.2838L48.1867 39.6769C48.1642 39.4758 48.1607 39.2729 48.1278 39.0735C48.0688 38.6747 48.0428 38.2724 47.9648 37.8788C47.9301 37.6812 47.9058 37.4818 47.8677 37.2858L47.7446 36.6998C47.5677 35.9212 47.3527 35.1531 47.0614 34.4092C46.9834 34.2272 46.9175 34.0347 46.8308 33.8544L46.7077 33.5787C46.6661 33.4868 46.6158 33.4001 46.5725 33.3099C46.3921 32.9493 46.1893 32.599 45.95 32.2609L45.9482 32.2592Z" fill="white"/>
<path opacity="0.45" d="M43.4666 34.5282C43.8272 35.0154 44.0787 35.5703 44.2763 36.139C44.4723 36.7095 44.611 37.299 44.6838 37.899C44.7584 38.4972 44.7792 39.104 44.7237 39.7057C44.6803 40.3057 44.552 40.9021 44.3491 41.4674C44.2919 40.864 44.2815 40.2814 44.2278 39.7022C44.1914 39.1231 44.1272 38.5509 44.0579 37.9787C43.9902 37.4065 43.8983 36.8361 43.7978 36.2656C43.6989 35.6917 43.5862 35.1212 43.4648 34.5299L43.4666 34.5282Z" fill="white"/>
</svg>
