<svg width="434" height="57" viewBox="0 0 434 57" fill="none" xmlns="http://www.w3.org/2000/svg">
<g filter="url(#filter0_d_3697_51256)">
<path d="M28.304 48.024C24.8907 48.024 21.712 47.4053 18.768 46.168C15.8667 44.9307 13.3493 43.2453 11.216 41.112C9.08267 38.936 7.39733 36.3973 6.16 33.496C4.96533 30.552 4.368 27.416 4.368 24.088C4.368 20.76 4.96533 17.6453 6.16 14.744C7.39733 11.8 9.08267 9.26133 11.216 7.128C13.3493 4.952 15.8667 3.24533 18.768 2.008C21.712 0.770664 24.8907 0.151997 28.304 0.151997C31.7173 0.151997 34.8747 0.770664 37.776 2.008C40.72 3.24533 43.2587 4.952 45.392 7.128C47.5253 9.26133 49.1893 11.8 50.384 14.744C51.6213 17.6453 52.24 20.76 52.24 24.088C52.24 27.416 51.6213 30.552 50.384 33.496C49.1893 36.3973 47.5253 38.936 45.392 41.112C43.2587 43.2453 40.72 44.9307 37.776 46.168C34.8747 47.4053 31.7173 48.024 28.304 48.024ZM28.304 39.832C30.4373 39.832 32.4213 39.448 34.256 38.68C36.1333 37.912 37.7547 36.8453 39.12 35.48C40.528 34.1147 41.616 32.472 42.384 30.552C43.1947 28.5893 43.6 26.4347 43.6 24.088C43.6 21.7413 43.1947 19.608 42.384 17.688C41.616 15.7253 40.528 14.0613 39.12 12.696C37.7547 11.3307 36.1333 10.264 34.256 9.496C32.4213 8.728 30.4373 8.344 28.304 8.344C26.1707 8.344 24.1653 8.728 22.288 9.496C20.4533 10.264 18.832 11.3307 17.424 12.696C16.0587 14.0613 14.9707 15.7253 14.16 17.688C13.392 19.608 13.008 21.7413 13.008 24.088C13.008 26.4347 13.392 28.5893 14.16 30.552C14.9707 32.472 16.0587 34.1147 17.424 35.48C18.832 36.8453 20.4533 37.912 22.288 38.68C24.1653 39.448 26.1707 39.832 28.304 39.832ZM84.705 42.904H84.193C83.2117 44.4827 81.889 45.7413 80.225 46.68C78.561 47.576 76.6623 48.024 74.529 48.024C70.561 48.024 67.5957 46.808 65.633 44.376C63.713 41.944 62.753 38.7013 62.753 34.648V15.64H71.137V33.624C71.137 35.8853 71.6277 37.5707 72.609 38.68C73.633 39.7467 75.105 40.28 77.025 40.28C78.177 40.28 79.1797 40.0453 80.033 39.576C80.929 39.064 81.6757 38.4027 82.273 37.592C82.913 36.7387 83.3823 35.7573 83.681 34.648C84.0223 33.496 84.193 32.28 84.193 31V15.64H92.577V47H84.705V42.904ZM104.559 15.64H112.431V19.992H112.943C113.327 19.224 113.839 18.52 114.479 17.88C115.119 17.24 115.823 16.6853 116.591 16.216C117.402 15.7467 118.255 15.384 119.151 15.128C120.09 14.872 121.007 14.744 121.903 14.744C123.012 14.744 123.951 14.8507 124.719 15.064C125.53 15.2773 126.212 15.5547 126.767 15.896L124.527 23.512C124.015 23.256 123.439 23.064 122.799 22.936C122.202 22.7653 121.455 22.68 120.559 22.68C119.407 22.68 118.362 22.9147 117.423 23.384C116.484 23.8107 115.674 24.4293 114.991 25.24C114.351 26.0507 113.839 27.0107 113.455 28.12C113.114 29.1867 112.943 30.36 112.943 31.64V47H104.559V15.64ZM155.308 47V1.176H171.436C173.612 1.176 175.639 1.53866 177.516 2.264C179.436 2.94666 181.1 3.928 182.508 5.208C183.916 6.488 185.025 8.024 185.836 9.816C186.647 11.5653 187.052 13.5067 187.052 15.64C187.052 17.816 186.647 19.8 185.836 21.592C185.025 23.3413 183.916 24.856 182.508 26.136C181.1 27.416 179.436 28.4187 177.516 29.144C175.639 29.8267 173.612 30.168 171.436 30.168H163.948V47H155.308ZM171.564 21.976C173.825 21.976 175.532 21.336 176.684 20.056C177.836 18.776 178.412 17.304 178.412 15.64C178.412 14.8293 178.263 14.04 177.964 13.272C177.708 12.504 177.281 11.8427 176.684 11.288C176.129 10.6907 175.425 10.2213 174.572 9.88C173.719 9.53867 172.716 9.368 171.564 9.368H163.948V21.976H171.564ZM215.037 43.672H214.525C213.544 44.8667 212.349 45.8907 210.941 46.744C209.576 47.5973 207.805 48.024 205.629 48.024C204.008 48.024 202.472 47.7467 201.021 47.192C199.613 46.68 198.376 45.9547 197.309 45.016C196.242 44.0773 195.41 42.9467 194.813 41.624C194.216 40.3013 193.917 38.8507 193.917 37.272C193.917 35.6507 194.237 34.2 194.877 32.92C195.517 31.5973 196.413 30.4667 197.565 29.528C198.717 28.5893 200.061 27.8853 201.597 27.416C203.176 26.904 204.882 26.648 206.717 26.648C208.765 26.648 210.45 26.8187 211.773 27.16C213.096 27.4587 214.184 27.7787 215.037 28.12V27.16C215.037 25.496 214.376 24.1307 213.053 23.064C211.73 21.9547 210.088 21.4 208.125 21.4C205.224 21.4 202.77 22.616 200.765 25.048L194.685 20.888C198.013 16.7067 202.557 14.616 208.317 14.616C213.181 14.616 216.893 15.768 219.453 18.072C222.013 20.3333 223.293 23.704 223.293 28.184V47H215.037V43.672ZM215.037 34.264C214.056 33.7947 213.032 33.432 211.965 33.176C210.941 32.8773 209.81 32.728 208.573 32.728C206.568 32.728 205.01 33.176 203.901 34.072C202.834 34.9253 202.301 35.992 202.301 37.272C202.301 38.552 202.813 39.576 203.837 40.344C204.904 41.112 206.12 41.496 207.485 41.496C208.594 41.496 209.618 41.304 210.557 40.92C211.496 40.4933 212.285 39.96 212.925 39.32C213.608 38.6373 214.12 37.8693 214.461 37.016C214.845 36.12 215.037 35.2027 215.037 34.264ZM242.631 19.992H243.143C243.996 18.4133 245.234 17.1547 246.855 16.216C248.519 15.2347 250.354 14.744 252.359 14.744C253.084 14.744 253.66 14.7653 254.087 14.808C254.514 14.8507 254.919 14.936 255.303 15.064V23.384C254.834 23.1707 254.3 23 253.703 22.872C253.148 22.744 252.466 22.68 251.655 22.68C249.01 22.68 246.919 23.4907 245.383 25.112C243.89 26.6907 243.143 28.8667 243.143 31.64V47H234.759V15.64H242.631V19.992ZM264.583 22.808H259.079V15.64H264.583V6.04H272.967V15.64H280.647V22.808H272.967V34.968C272.967 35.6933 273.031 36.376 273.159 37.016C273.33 37.6133 273.628 38.1253 274.055 38.552C274.652 39.2347 275.506 39.576 276.615 39.576C277.34 39.576 277.916 39.512 278.343 39.384C278.77 39.2133 279.175 39 279.559 38.744L281.927 46.104C280.946 46.5733 279.879 46.9147 278.727 47.128C277.618 47.384 276.38 47.512 275.015 47.512C273.436 47.512 272.007 47.2773 270.727 46.808C269.49 46.296 268.444 45.6133 267.591 44.76C265.586 42.84 264.583 40.1093 264.583 36.568V22.808ZM299.806 19.736H300.318C301.299 18.1573 302.622 16.92 304.286 16.024C305.95 15.0853 307.849 14.616 309.982 14.616C311.945 14.616 313.673 14.936 315.166 15.576C316.659 16.216 317.875 17.1333 318.814 18.328C319.795 19.48 320.521 20.888 320.99 22.552C321.502 24.1733 321.758 25.9867 321.758 27.992V47H313.374V29.016C313.374 26.7547 312.862 25.0907 311.838 24.024C310.857 22.9147 309.406 22.36 307.486 22.36C306.334 22.36 305.31 22.616 304.414 23.128C303.561 23.5973 302.814 24.2587 302.174 25.112C301.577 25.9227 301.107 26.904 300.766 28.056C300.467 29.1653 300.318 30.36 300.318 31.64V47H291.934V15.64H299.806V19.736ZM363.18 39.448C361.729 42.008 359.767 44.0773 357.292 45.656C354.86 47.2347 351.873 48.024 348.332 48.024C345.943 48.024 343.724 47.6187 341.676 46.808C339.671 45.9547 337.921 44.7813 336.428 43.288C334.935 41.7947 333.761 40.0453 332.908 38.04C332.097 35.992 331.692 33.752 331.692 31.32C331.692 29.0587 332.097 26.9253 332.908 24.92C333.719 22.872 334.849 21.1013 336.3 19.608C337.751 18.072 339.457 16.856 341.42 15.96C343.425 15.064 345.623 14.616 348.012 14.616C350.529 14.616 352.769 15.0427 354.732 15.896C356.695 16.7067 358.337 17.8587 359.66 19.352C360.983 20.8027 361.985 22.5307 362.668 24.536C363.351 26.5413 363.692 28.7173 363.692 31.064C363.692 31.3627 363.692 31.6187 363.692 31.832C363.649 32.088 363.628 32.3227 363.628 32.536C363.585 32.7493 363.564 32.984 363.564 33.24H339.948C340.119 34.52 340.46 35.6293 340.972 36.568C341.527 37.464 342.188 38.232 342.956 38.872C343.767 39.4693 344.641 39.9173 345.58 40.216C346.519 40.472 347.479 40.6 348.46 40.6C350.38 40.6 351.959 40.1733 353.196 39.32C354.476 38.424 355.479 37.3147 356.204 35.992L363.18 39.448ZM355.564 27.288C355.521 26.7333 355.329 26.1147 354.988 25.432C354.689 24.7493 354.22 24.1093 353.58 23.512C352.983 22.9147 352.215 22.424 351.276 22.04C350.38 21.656 349.292 21.464 348.012 21.464C346.22 21.464 344.641 21.976 343.276 23C341.911 24.024 340.951 25.4533 340.396 27.288H355.564ZM373.847 15.64H381.719V19.992H382.231C382.615 19.224 383.127 18.52 383.767 17.88C384.407 17.24 385.111 16.6853 385.879 16.216C386.689 15.7467 387.543 15.384 388.439 15.128C389.377 14.872 390.295 14.744 391.191 14.744C392.3 14.744 393.239 14.8507 394.007 15.064C394.817 15.2773 395.5 15.5547 396.055 15.896L393.815 23.512C393.303 23.256 392.727 23.064 392.087 22.936C391.489 22.7653 390.743 22.68 389.847 22.68C388.695 22.68 387.649 22.9147 386.711 23.384C385.772 23.8107 384.961 24.4293 384.279 25.24C383.639 26.0507 383.127 27.0107 382.743 28.12C382.401 29.1867 382.231 30.36 382.231 31.64V47H373.847V15.64ZM415.875 48.024C413.827 48.024 411.992 47.768 410.371 47.256C408.792 46.744 407.406 46.0827 406.211 45.272C405.059 44.4187 404.078 43.4587 403.267 42.392C402.456 41.2827 401.838 40.1733 401.411 39.064L408.899 35.864C409.624 37.4853 410.584 38.7013 411.779 39.512C413.016 40.28 414.382 40.664 415.875 40.664C417.411 40.664 418.627 40.3867 419.523 39.832C420.419 39.2773 420.867 38.616 420.867 37.848C420.867 36.9947 420.483 36.312 419.715 35.8C418.99 35.2453 417.71 34.7547 415.875 34.328L411.459 33.368C410.478 33.1547 409.454 32.8133 408.387 32.344C407.363 31.8747 406.424 31.2773 405.571 30.552C404.718 29.8267 404.014 28.952 403.459 27.928C402.904 26.904 402.627 25.7093 402.627 24.344C402.627 22.808 402.947 21.4427 403.587 20.248C404.27 19.0533 405.187 18.0507 406.339 17.24C407.491 16.3867 408.835 15.7467 410.371 15.32C411.95 14.8507 413.635 14.616 415.427 14.616C418.414 14.616 421.08 15.2133 423.427 16.408C425.774 17.56 427.502 19.416 428.611 21.976L421.379 24.92C420.782 23.6827 419.907 22.7867 418.755 22.232C417.603 21.6773 416.451 21.4 415.299 21.4C414.104 21.4 413.059 21.656 412.163 22.168C411.267 22.6373 410.819 23.256 410.819 24.024C410.819 24.7493 411.182 25.3253 411.907 25.752C412.675 26.1787 413.699 26.5627 414.979 26.904L419.779 28.056C422.979 28.824 425.347 30.0613 426.883 31.768C428.462 33.432 429.251 35.416 429.251 37.72C429.251 39.0853 428.931 40.3867 428.291 41.624C427.651 42.8613 426.734 43.9707 425.539 44.952C424.387 45.8907 422.979 46.6373 421.315 47.192C419.694 47.7467 417.88 48.024 415.875 48.024Z" fill="#7D8190"/>
</g>
<defs>
<filter id="filter0_d_3697_51256" x="0.368164" y="0.1521" width="432.883" height="55.8718" filterUnits="userSpaceOnUse" color-interpolation-filters="sRGB">
<feFlood flood-opacity="0" result="BackgroundImageFix"/>
<feColorMatrix in="SourceAlpha" type="matrix" values="0 0 0 0 0 0 0 0 0 0 0 0 0 0 0 0 0 0 127 0" result="hardAlpha"/>
<feOffset dy="4"/>
<feGaussianBlur stdDeviation="2"/>
<feComposite in2="hardAlpha" operator="out"/>
<feColorMatrix type="matrix" values="0 0 0 0 0 0 0 0 0 0 0 0 0 0 0 0 0 0 0.25 0"/>
<feBlend mode="normal" in2="BackgroundImageFix" result="effect1_dropShadow_3697_51256"/>
<feBlend mode="normal" in="SourceGraphic" in2="effect1_dropShadow_3697_51256" result="shape"/>
</filter>
</defs>
</svg>
