<svg width="204" height="57" viewBox="0 0 204 57" fill="none" xmlns="http://www.w3.org/2000/svg">
<g filter="url(#filter0_d_3697_51110)">
<path d="M4.608 47V1.176H20.736C22.912 1.176 24.9387 1.53866 26.816 2.264C28.736 2.94666 30.4 3.928 31.808 5.208C33.216 6.488 34.3253 8.024 35.136 9.816C35.9467 11.5653 36.352 13.5067 36.352 15.64C36.352 17.816 35.9467 19.8 35.136 21.592C34.3253 23.3413 33.216 24.856 31.808 26.136C30.4 27.416 28.736 28.4187 26.816 29.144C24.9387 29.8267 22.912 30.168 20.736 30.168H13.248V47H4.608ZM20.864 21.976C23.1253 21.976 24.832 21.336 25.984 20.056C27.136 18.776 27.712 17.304 27.712 15.64C27.712 14.8293 27.5627 14.04 27.264 13.272C27.008 12.504 26.5813 11.8427 25.984 11.288C25.4293 10.6907 24.7253 10.2213 23.872 9.88C23.0187 9.53867 22.016 9.368 20.864 9.368H13.248V21.976H20.864ZM46.259 15.64H54.131V19.992H54.643C55.027 19.224 55.539 18.52 56.179 17.88C56.819 17.24 57.523 16.6853 58.291 16.216C59.1017 15.7467 59.955 15.384 60.851 15.128C61.7897 14.872 62.707 14.744 63.603 14.744C64.7123 14.744 65.651 14.8507 66.419 15.064C67.2297 15.2773 67.9123 15.5547 68.467 15.896L66.227 23.512C65.715 23.256 65.139 23.064 64.499 22.936C63.9017 22.7653 63.155 22.68 62.259 22.68C61.107 22.68 60.0617 22.9147 59.123 23.384C58.1843 23.8107 57.3737 24.4293 56.691 25.24C56.051 26.0507 55.539 27.0107 55.155 28.12C54.8137 29.1867 54.643 30.36 54.643 31.64V47H46.259V15.64ZM81.7935 11.096C81.0682 11.096 80.3642 10.968 79.6815 10.712C79.0415 10.4133 78.4655 10.0293 77.9535 9.56C77.4842 9.048 77.1002 8.472 76.8015 7.832C76.5455 7.192 76.4175 6.488 76.4175 5.72C76.4175 4.952 76.5455 4.248 76.8015 3.608C77.1002 2.968 77.4842 2.41333 77.9535 1.944C78.4655 1.432 79.0415 1.048 79.6815 0.791996C80.3642 0.493331 81.0682 0.343998 81.7935 0.343998C83.2868 0.343998 84.5668 0.877331 85.6335 1.944C86.7002 2.968 87.2335 4.22667 87.2335 5.72C87.2335 7.21333 86.7002 8.49333 85.6335 9.56C84.5668 10.584 83.2868 11.096 81.7935 11.096ZM77.6335 47V15.64H86.0175V47H77.6335ZM96.948 40.088L112.948 22.808H97.46V15.64H123.252V22.552L107.252 39.832H123.508V47H96.948V40.088ZM162.98 39.448C161.529 42.008 159.567 44.0773 157.092 45.656C154.66 47.2347 151.673 48.024 148.132 48.024C145.743 48.024 143.524 47.6187 141.476 46.808C139.471 45.9547 137.721 44.7813 136.228 43.288C134.735 41.7947 133.561 40.0453 132.708 38.04C131.897 35.992 131.492 33.752 131.492 31.32C131.492 29.0587 131.897 26.9253 132.708 24.92C133.519 22.872 134.649 21.1013 136.1 19.608C137.551 18.072 139.257 16.856 141.22 15.96C143.225 15.064 145.423 14.616 147.812 14.616C150.329 14.616 152.569 15.0427 154.532 15.896C156.495 16.7067 158.137 17.8587 159.46 19.352C160.783 20.8027 161.785 22.5307 162.468 24.536C163.151 26.5413 163.492 28.7173 163.492 31.064C163.492 31.3627 163.492 31.6187 163.492 31.832C163.449 32.088 163.428 32.3227 163.428 32.536C163.385 32.7493 163.364 32.984 163.364 33.24H139.748C139.919 34.52 140.26 35.6293 140.772 36.568C141.327 37.464 141.988 38.232 142.756 38.872C143.567 39.4693 144.441 39.9173 145.38 40.216C146.319 40.472 147.279 40.6 148.26 40.6C150.18 40.6 151.759 40.1733 152.996 39.32C154.276 38.424 155.279 37.3147 156.004 35.992L162.98 39.448ZM155.364 27.288C155.321 26.7333 155.129 26.1147 154.788 25.432C154.489 24.7493 154.02 24.1093 153.38 23.512C152.783 22.9147 152.015 22.424 151.076 22.04C150.18 21.656 149.092 21.464 147.812 21.464C146.02 21.464 144.441 21.976 143.076 23C141.711 24.024 140.751 25.4533 140.196 27.288H155.364ZM186.375 48.024C184.327 48.024 182.492 47.768 180.871 47.256C179.292 46.744 177.906 46.0827 176.711 45.272C175.559 44.4187 174.578 43.4587 173.767 42.392C172.956 41.2827 172.338 40.1733 171.911 39.064L179.399 35.864C180.124 37.4853 181.084 38.7013 182.279 39.512C183.516 40.28 184.882 40.664 186.375 40.664C187.911 40.664 189.127 40.3867 190.023 39.832C190.919 39.2773 191.367 38.616 191.367 37.848C191.367 36.9947 190.983 36.312 190.215 35.8C189.49 35.2453 188.21 34.7547 186.375 34.328L181.959 33.368C180.978 33.1547 179.954 32.8133 178.887 32.344C177.863 31.8747 176.924 31.2773 176.071 30.552C175.218 29.8267 174.514 28.952 173.959 27.928C173.404 26.904 173.127 25.7093 173.127 24.344C173.127 22.808 173.447 21.4427 174.087 20.248C174.77 19.0533 175.687 18.0507 176.839 17.24C177.991 16.3867 179.335 15.7467 180.871 15.32C182.45 14.8507 184.135 14.616 185.927 14.616C188.914 14.616 191.58 15.2133 193.927 16.408C196.274 17.56 198.002 19.416 199.111 21.976L191.879 24.92C191.282 23.6827 190.407 22.7867 189.255 22.232C188.103 21.6773 186.951 21.4 185.799 21.4C184.604 21.4 183.559 21.656 182.663 22.168C181.767 22.6373 181.319 23.256 181.319 24.024C181.319 24.7493 181.682 25.3253 182.407 25.752C183.175 26.1787 184.199 26.5627 185.479 26.904L190.279 28.056C193.479 28.824 195.847 30.0613 197.383 31.768C198.962 33.432 199.751 35.416 199.751 37.72C199.751 39.0853 199.431 40.3867 198.791 41.624C198.151 42.8613 197.234 43.9707 196.039 44.952C194.887 45.8907 193.479 46.6373 191.815 47.192C190.194 47.7467 188.38 48.024 186.375 48.024Z" fill="#7D8190"/>
</g>
<defs>
<filter id="filter0_d_3697_51110" x="0.608398" y="0.343994" width="203.143" height="55.6801" filterUnits="userSpaceOnUse" color-interpolation-filters="sRGB">
<feFlood flood-opacity="0" result="BackgroundImageFix"/>
<feColorMatrix in="SourceAlpha" type="matrix" values="0 0 0 0 0 0 0 0 0 0 0 0 0 0 0 0 0 0 127 0" result="hardAlpha"/>
<feOffset dy="4"/>
<feGaussianBlur stdDeviation="2"/>
<feComposite in2="hardAlpha" operator="out"/>
<feColorMatrix type="matrix" values="0 0 0 0 0 0 0 0 0 0 0 0 0 0 0 0 0 0 0.25 0"/>
<feBlend mode="normal" in2="BackgroundImageFix" result="effect1_dropShadow_3697_51110"/>
<feBlend mode="normal" in="SourceGraphic" in2="effect1_dropShadow_3697_51110" result="shape"/>
</filter>
</defs>
</svg>
